M48
; DRILL file {KiCad (6.0.1)} date Wed May  4 15:38:41 2022
; FORMAT={-:-/ absolute / inch / decimal}
; #@! TF.CreationDate,2022-05-04T15:38:41-04:00
; #@! TF.GenerationSoftware,Kicad,Pcbnew,(6.0.1)
; #@! TF.FileFunction,Plated,1,2,PTH
FMAT,2
INCH
; #@! TA.AperFunction,Plated,PTH,ViaDrill
T1C0.0157
; #@! TA.AperFunction,Plated,PTH,ComponentDrill
T2C0.0236
; #@! TA.AperFunction,Plated,PTH,ComponentDrill
T3C0.0295
; #@! TA.AperFunction,Plated,PTH,ComponentDrill
T4C0.0315
; #@! TA.AperFunction,Plated,PTH,ComponentDrill
T5C0.0354
; #@! TA.AperFunction,Plated,PTH,ViaDrill
T6C0.0394
; #@! TA.AperFunction,Plated,PTH,ComponentDrill
T7C0.0394
; #@! TA.AperFunction,Plated,PTH,ComponentDrill
T8C0.0472
; #@! TA.AperFunction,Plated,PTH,ComponentDrill
T9C0.0591
%
G90
G05
T1
X8.1292Y-2.4095
T2
X7.3533Y-2.2756
X7.3533Y-2.4173
X7.3533Y-2.5591
X9.938Y-1.315
X9.938Y-1.4567
X9.938Y-1.5984
X9.938Y-1.7165
X9.938Y-1.8583
X9.938Y-2.0
X9.9528Y-3.1142
X9.9528Y-3.1732
T3
X7.6118Y-1.4927
X7.6118Y-1.5427
X7.6118Y-1.5927
X7.6134Y-1.8679
X7.6134Y-1.9179
X7.6134Y-1.9679
X9.2087Y-1.7526
X9.2087Y-1.8026
X9.2087Y-1.8526
X9.2102Y-1.5321
X9.2102Y-1.5821
X9.2102Y-1.6321
T4
X7.1071Y-2.7087
X7.5008Y-3.3386
X7.5071Y-2.7087
X7.685Y-2.4646
X7.685Y-2.5646
X7.685Y-2.6646
X7.685Y-2.7646
X7.7362Y-1.2126
X7.7362Y-1.59
X7.7362Y-1.7159
X7.737Y-1.4646
X7.7394Y-1.9679
X7.7394Y-2.0939
X7.9008Y-3.3386
X7.985Y-2.4646
X7.985Y-2.5646
X7.985Y-2.6646
X7.985Y-2.7646
X8.0283Y-4.1732
X8.0835Y-2.7638
X8.0866Y-3.2016
X8.0866Y-3.6016
X8.1362Y-1.2126
X8.1362Y-1.59
X8.1362Y-1.7159
X8.137Y-1.4646
X8.1378Y-2.2278
X8.1394Y-1.9679
X8.1394Y-2.0939
X8.2512Y-1.4709
X8.2512Y-1.5709
X8.2512Y-1.6709
X8.2512Y-1.7709
X8.2512Y-1.8709
X8.2512Y-1.9709
X8.2512Y-2.0709
X8.4283Y-4.1732
X8.4835Y-2.7638
X8.5378Y-2.2278
X8.5512Y-1.4709
X8.5512Y-1.5709
X8.5512Y-1.6709
X8.5512Y-1.7709
X8.5512Y-1.8709
X8.5512Y-1.9709
X8.5512Y-2.0709
X8.6122Y-3.178
X8.6122Y-3.578
X8.6496Y-1.2199
X8.6496Y-1.3459
X8.6496Y-1.4719
X8.6496Y-1.7238
X8.6496Y-1.9758
X8.6496Y-2.1018
X8.8236Y-2.3071
X8.8283Y-2.4331
X8.8315Y-2.5591
X9.0496Y-1.2199
X9.0496Y-1.3459
X9.0496Y-1.4719
X9.0496Y-1.7238
X9.0496Y-1.9758
X9.0496Y-2.1018
X9.2236Y-2.3071
X9.2283Y-2.4331
X9.2315Y-2.5591
X9.3512Y-2.3307
X9.3512Y-2.4307
X9.3512Y-2.5307
X9.3512Y-2.6307
X9.5531Y-2.8732
X9.5531Y-3.2732
X9.6512Y-2.3307
X9.6512Y-2.4307
X9.6512Y-2.5307
X9.6512Y-2.6307
X9.685Y-2.8732
X9.685Y-3.1732
X9.7685Y-2.2441
X9.7685Y-2.4961
X9.7685Y-2.622
X9.8031Y-2.8732
X9.8031Y-3.1732
X10.1685Y-2.2441
X10.1685Y-2.4961
X10.1685Y-2.622
T5
X8.6122Y-3.6844
X8.6122Y-3.7844
T6
X8.6142Y-2.9843
T7
X7.2953Y-2.8346
X7.3438Y-4.7283
X7.3438Y-4.8268
X7.4921Y-2.8346
X7.8378Y-1.8419
X7.9244Y-1.3386
X8.0346Y-1.8419
X8.0835Y-2.8937
X8.0835Y-3.0906
X8.1213Y-1.3386
X8.7512Y-1.8498
X8.7591Y-1.5978
X8.8465Y-2.685
X8.948Y-1.8498
X8.9559Y-1.5978
X9.0433Y-2.685
X9.2244Y-2.1732
X9.4213Y-2.1732
X9.4252Y-2.8909
X9.4252Y-3.0878
X9.8622Y-2.1181
X9.8622Y-2.3701
X10.0591Y-2.1181
X10.0591Y-2.3701
T8
X8.4036Y-4.4804
X8.4036Y-4.6693
X8.4036Y-4.8582
X8.6122Y-4.4804
X8.6122Y-4.6693
X8.6122Y-4.8582
X8.8208Y-4.4804
X8.8208Y-4.6693
X8.8208Y-4.8582
T9
X7.1535Y-3.512
X7.1535Y-3.962
X7.4035Y-3.512
X7.4035Y-3.962
X7.6535Y-3.512
X7.6535Y-3.962
X9.5709Y-3.4967
X9.5709Y-3.9467
X9.8209Y-3.4967
X9.8209Y-3.9467
X10.0709Y-3.4967
X10.0709Y-3.9467
T7
G00X7.126Y-4.2773
M15
G01X7.126Y-4.356
M16
G05
G00X7.2047Y-4.5017
M15
G01X7.2835Y-4.5017
M16
G05
G00X7.3622Y-4.2773
M15
G01X7.3622Y-4.356
M16
G05
T0
M30
