%TF.GenerationSoftware,KiCad,Pcbnew,(6.0.1)*%
%TF.CreationDate,2022-05-04T15:38:42-04:00*%
%TF.ProjectId,phase90plusplus,70686173-6539-4307-906c-7573706c7573,rev?*%
%TF.SameCoordinates,Original*%
%TF.FileFunction,Legend,Top*%
%TF.FilePolarity,Positive*%
%FSLAX46Y46*%
G04 Gerber Fmt 4.6, Leading zero omitted, Abs format (unit mm)*
G04 Created by KiCad (PCBNEW (6.0.1)) date 2022-05-04 15:38:42*
%MOMM*%
%LPD*%
G01*
G04 APERTURE LIST*
%ADD10C,0.150000*%
%ADD11C,0.127000*%
%ADD12C,0.120000*%
%ADD13C,0.203200*%
G04 APERTURE END LIST*
D10*
%TO.C,U2*%
X198248095Y-59722380D02*
X198248095Y-60531904D01*
X198295714Y-60627142D01*
X198343333Y-60674761D01*
X198438571Y-60722380D01*
X198629047Y-60722380D01*
X198724285Y-60674761D01*
X198771904Y-60627142D01*
X198819523Y-60531904D01*
X198819523Y-59722380D01*
X199248095Y-59817619D02*
X199295714Y-59770000D01*
X199390952Y-59722380D01*
X199629047Y-59722380D01*
X199724285Y-59770000D01*
X199771904Y-59817619D01*
X199819523Y-59912857D01*
X199819523Y-60008095D01*
X199771904Y-60150952D01*
X199200476Y-60722380D01*
X199819523Y-60722380D01*
%TO.C,C11*%
X252357142Y-54157142D02*
X252309523Y-54204761D01*
X252166666Y-54252380D01*
X252071428Y-54252380D01*
X251928571Y-54204761D01*
X251833333Y-54109523D01*
X251785714Y-54014285D01*
X251738095Y-53823809D01*
X251738095Y-53680952D01*
X251785714Y-53490476D01*
X251833333Y-53395238D01*
X251928571Y-53300000D01*
X252071428Y-53252380D01*
X252166666Y-53252380D01*
X252309523Y-53300000D01*
X252357142Y-53347619D01*
X253309523Y-54252380D02*
X252738095Y-54252380D01*
X253023809Y-54252380D02*
X253023809Y-53252380D01*
X252928571Y-53395238D01*
X252833333Y-53490476D01*
X252738095Y-53538095D01*
X254261904Y-54252380D02*
X253690476Y-54252380D01*
X253976190Y-54252380D02*
X253976190Y-53252380D01*
X253880952Y-53395238D01*
X253785714Y-53490476D01*
X253690476Y-53538095D01*
%TO.C,D2*%
X246452380Y-77738095D02*
X245452380Y-77738095D01*
X245452380Y-77500000D01*
X245500000Y-77357142D01*
X245595238Y-77261904D01*
X245690476Y-77214285D01*
X245880952Y-77166666D01*
X246023809Y-77166666D01*
X246214285Y-77214285D01*
X246309523Y-77261904D01*
X246404761Y-77357142D01*
X246452380Y-77500000D01*
X246452380Y-77738095D01*
X245547619Y-76785714D02*
X245500000Y-76738095D01*
X245452380Y-76642857D01*
X245452380Y-76404761D01*
X245500000Y-76309523D01*
X245547619Y-76261904D01*
X245642857Y-76214285D01*
X245738095Y-76214285D01*
X245880952Y-76261904D01*
X246452380Y-76833333D01*
X246452380Y-76214285D01*
X246452380Y-71661904D02*
X245452380Y-71661904D01*
X246452380Y-71090476D02*
X245880952Y-71519047D01*
X245452380Y-71090476D02*
X246023809Y-71661904D01*
%TO.C,C10*%
X239757142Y-76572857D02*
X239804761Y-76620476D01*
X239852380Y-76763333D01*
X239852380Y-76858571D01*
X239804761Y-77001428D01*
X239709523Y-77096666D01*
X239614285Y-77144285D01*
X239423809Y-77191904D01*
X239280952Y-77191904D01*
X239090476Y-77144285D01*
X238995238Y-77096666D01*
X238900000Y-77001428D01*
X238852380Y-76858571D01*
X238852380Y-76763333D01*
X238900000Y-76620476D01*
X238947619Y-76572857D01*
X239852380Y-75620476D02*
X239852380Y-76191904D01*
X239852380Y-75906190D02*
X238852380Y-75906190D01*
X238995238Y-76001428D01*
X239090476Y-76096666D01*
X239138095Y-76191904D01*
X238852380Y-75001428D02*
X238852380Y-74906190D01*
X238900000Y-74810952D01*
X238947619Y-74763333D01*
X239042857Y-74715714D01*
X239233333Y-74668095D01*
X239471428Y-74668095D01*
X239661904Y-74715714D01*
X239757142Y-74763333D01*
X239804761Y-74810952D01*
X239852380Y-74906190D01*
X239852380Y-75001428D01*
X239804761Y-75096666D01*
X239757142Y-75144285D01*
X239661904Y-75191904D01*
X239471428Y-75239523D01*
X239233333Y-75239523D01*
X239042857Y-75191904D01*
X238947619Y-75144285D01*
X238900000Y-75096666D01*
X238852380Y-75001428D01*
%TO.C,R15*%
X200957142Y-31252380D02*
X200623809Y-30776190D01*
X200385714Y-31252380D02*
X200385714Y-30252380D01*
X200766666Y-30252380D01*
X200861904Y-30300000D01*
X200909523Y-30347619D01*
X200957142Y-30442857D01*
X200957142Y-30585714D01*
X200909523Y-30680952D01*
X200861904Y-30728571D01*
X200766666Y-30776190D01*
X200385714Y-30776190D01*
X201909523Y-31252380D02*
X201338095Y-31252380D01*
X201623809Y-31252380D02*
X201623809Y-30252380D01*
X201528571Y-30395238D01*
X201433333Y-30490476D01*
X201338095Y-30538095D01*
X202814285Y-30252380D02*
X202338095Y-30252380D01*
X202290476Y-30728571D01*
X202338095Y-30680952D01*
X202433333Y-30633333D01*
X202671428Y-30633333D01*
X202766666Y-30680952D01*
X202814285Y-30728571D01*
X202861904Y-30823809D01*
X202861904Y-31061904D01*
X202814285Y-31157142D01*
X202766666Y-31204761D01*
X202671428Y-31252380D01*
X202433333Y-31252380D01*
X202338095Y-31204761D01*
X202290476Y-31157142D01*
D11*
%TO.C,S1*%
X218285542Y-109702742D02*
X218372628Y-109731771D01*
X218517771Y-109731771D01*
X218575828Y-109702742D01*
X218604857Y-109673714D01*
X218633885Y-109615657D01*
X218633885Y-109557600D01*
X218604857Y-109499542D01*
X218575828Y-109470514D01*
X218517771Y-109441485D01*
X218401657Y-109412457D01*
X218343600Y-109383428D01*
X218314571Y-109354400D01*
X218285542Y-109296342D01*
X218285542Y-109238285D01*
X218314571Y-109180228D01*
X218343600Y-109151200D01*
X218401657Y-109122171D01*
X218546800Y-109122171D01*
X218633885Y-109151200D01*
X219214457Y-109731771D02*
X218866114Y-109731771D01*
X219040285Y-109731771D02*
X219040285Y-109122171D01*
X218982228Y-109209257D01*
X218924171Y-109267314D01*
X218866114Y-109296342D01*
X212610457Y-128117742D02*
X212697542Y-128146771D01*
X212842685Y-128146771D01*
X212900742Y-128117742D01*
X212929771Y-128088714D01*
X212958800Y-128030657D01*
X212958800Y-127972600D01*
X212929771Y-127914542D01*
X212900742Y-127885514D01*
X212842685Y-127856485D01*
X212726571Y-127827457D01*
X212668514Y-127798428D01*
X212639485Y-127769400D01*
X212610457Y-127711342D01*
X212610457Y-127653285D01*
X212639485Y-127595228D01*
X212668514Y-127566200D01*
X212726571Y-127537171D01*
X212871714Y-127537171D01*
X212958800Y-127566200D01*
X213162000Y-127537171D02*
X213307142Y-128146771D01*
X213423257Y-127711342D01*
X213539371Y-128146771D01*
X213684514Y-127537171D01*
X213916742Y-128146771D02*
X213916742Y-127537171D01*
X214119942Y-127537171D02*
X214468285Y-127537171D01*
X214294114Y-128146771D02*
X214294114Y-127537171D01*
X215019828Y-128088714D02*
X214990800Y-128117742D01*
X214903714Y-128146771D01*
X214845657Y-128146771D01*
X214758571Y-128117742D01*
X214700514Y-128059685D01*
X214671485Y-128001628D01*
X214642457Y-127885514D01*
X214642457Y-127798428D01*
X214671485Y-127682314D01*
X214700514Y-127624257D01*
X214758571Y-127566200D01*
X214845657Y-127537171D01*
X214903714Y-127537171D01*
X214990800Y-127566200D01*
X215019828Y-127595228D01*
X215281085Y-128146771D02*
X215281085Y-127537171D01*
X215281085Y-127827457D02*
X215629428Y-127827457D01*
X215629428Y-128146771D02*
X215629428Y-127537171D01*
X215919714Y-127914542D02*
X216384171Y-127914542D01*
X216616400Y-127537171D02*
X216993771Y-127537171D01*
X216790571Y-127769400D01*
X216877657Y-127769400D01*
X216935714Y-127798428D01*
X216964742Y-127827457D01*
X216993771Y-127885514D01*
X216993771Y-128030657D01*
X216964742Y-128088714D01*
X216935714Y-128117742D01*
X216877657Y-128146771D01*
X216703485Y-128146771D01*
X216645428Y-128117742D01*
X216616400Y-128088714D01*
X217255028Y-128146771D02*
X217255028Y-127537171D01*
X217487257Y-127537171D01*
X217545314Y-127566200D01*
X217574342Y-127595228D01*
X217603371Y-127653285D01*
X217603371Y-127740371D01*
X217574342Y-127798428D01*
X217545314Y-127827457D01*
X217487257Y-127856485D01*
X217255028Y-127856485D01*
X217864628Y-128146771D02*
X217864628Y-127537171D01*
X218009771Y-127537171D01*
X218096857Y-127566200D01*
X218154914Y-127624257D01*
X218183942Y-127682314D01*
X218212971Y-127798428D01*
X218212971Y-127885514D01*
X218183942Y-128001628D01*
X218154914Y-128059685D01*
X218096857Y-128117742D01*
X218009771Y-128146771D01*
X217864628Y-128146771D01*
X218387142Y-127537171D02*
X218735485Y-127537171D01*
X218561314Y-128146771D02*
X218561314Y-127537171D01*
X218938685Y-127914542D02*
X219403142Y-127914542D01*
X219693428Y-128146771D02*
X219693428Y-127537171D01*
X219925657Y-127537171D01*
X219983714Y-127566200D01*
X220012742Y-127595228D01*
X220041771Y-127653285D01*
X220041771Y-127740371D01*
X220012742Y-127798428D01*
X219983714Y-127827457D01*
X219925657Y-127856485D01*
X219693428Y-127856485D01*
X220215942Y-127537171D02*
X220564285Y-127537171D01*
X220390114Y-128146771D02*
X220390114Y-127537171D01*
X220767485Y-128146771D02*
X220767485Y-127537171D01*
X220767485Y-127827457D02*
X221115828Y-127827457D01*
X221115828Y-128146771D02*
X221115828Y-127537171D01*
X221406114Y-127914542D02*
X221870571Y-127914542D01*
X222131828Y-128117742D02*
X222218914Y-128146771D01*
X222364057Y-128146771D01*
X222422114Y-128117742D01*
X222451142Y-128088714D01*
X222480171Y-128030657D01*
X222480171Y-127972600D01*
X222451142Y-127914542D01*
X222422114Y-127885514D01*
X222364057Y-127856485D01*
X222247942Y-127827457D01*
X222189885Y-127798428D01*
X222160857Y-127769400D01*
X222131828Y-127711342D01*
X222131828Y-127653285D01*
X222160857Y-127595228D01*
X222189885Y-127566200D01*
X222247942Y-127537171D01*
X222393085Y-127537171D01*
X222480171Y-127566200D01*
X222654342Y-127537171D02*
X223002685Y-127537171D01*
X222828514Y-128146771D02*
X222828514Y-127537171D01*
X223322000Y-127537171D02*
X223438114Y-127537171D01*
X223496171Y-127566200D01*
X223554228Y-127624257D01*
X223583257Y-127740371D01*
X223583257Y-127943571D01*
X223554228Y-128059685D01*
X223496171Y-128117742D01*
X223438114Y-128146771D01*
X223322000Y-128146771D01*
X223263942Y-128117742D01*
X223205885Y-128059685D01*
X223176857Y-127943571D01*
X223176857Y-127740371D01*
X223205885Y-127624257D01*
X223263942Y-127566200D01*
X223322000Y-127537171D01*
X223844514Y-128146771D02*
X223844514Y-127537171D01*
X224047714Y-127972600D01*
X224250914Y-127537171D01*
X224250914Y-128146771D01*
X224541200Y-128146771D02*
X224541200Y-127537171D01*
X224773428Y-127537171D01*
X224831485Y-127566200D01*
X224860514Y-127595228D01*
X224889542Y-127653285D01*
X224889542Y-127740371D01*
X224860514Y-127798428D01*
X224831485Y-127827457D01*
X224773428Y-127856485D01*
X224541200Y-127856485D01*
D10*
%TO.C,C3*%
X203613333Y-34357142D02*
X203565714Y-34404761D01*
X203422857Y-34452380D01*
X203327619Y-34452380D01*
X203184761Y-34404761D01*
X203089523Y-34309523D01*
X203041904Y-34214285D01*
X202994285Y-34023809D01*
X202994285Y-33880952D01*
X203041904Y-33690476D01*
X203089523Y-33595238D01*
X203184761Y-33500000D01*
X203327619Y-33452380D01*
X203422857Y-33452380D01*
X203565714Y-33500000D01*
X203613333Y-33547619D01*
X203946666Y-33452380D02*
X204565714Y-33452380D01*
X204232380Y-33833333D01*
X204375238Y-33833333D01*
X204470476Y-33880952D01*
X204518095Y-33928571D01*
X204565714Y-34023809D01*
X204565714Y-34261904D01*
X204518095Y-34357142D01*
X204470476Y-34404761D01*
X204375238Y-34452380D01*
X204089523Y-34452380D01*
X203994285Y-34404761D01*
X203946666Y-34357142D01*
%TO.C,R2*%
X201433333Y-37652380D02*
X201100000Y-37176190D01*
X200861904Y-37652380D02*
X200861904Y-36652380D01*
X201242857Y-36652380D01*
X201338095Y-36700000D01*
X201385714Y-36747619D01*
X201433333Y-36842857D01*
X201433333Y-36985714D01*
X201385714Y-37080952D01*
X201338095Y-37128571D01*
X201242857Y-37176190D01*
X200861904Y-37176190D01*
X201814285Y-36747619D02*
X201861904Y-36700000D01*
X201957142Y-36652380D01*
X202195238Y-36652380D01*
X202290476Y-36700000D01*
X202338095Y-36747619D01*
X202385714Y-36842857D01*
X202385714Y-36938095D01*
X202338095Y-37080952D01*
X201766666Y-37652380D01*
X202385714Y-37652380D01*
%TO.C,R7*%
X201413333Y-40652380D02*
X201080000Y-40176190D01*
X200841904Y-40652380D02*
X200841904Y-39652380D01*
X201222857Y-39652380D01*
X201318095Y-39700000D01*
X201365714Y-39747619D01*
X201413333Y-39842857D01*
X201413333Y-39985714D01*
X201365714Y-40080952D01*
X201318095Y-40128571D01*
X201222857Y-40176190D01*
X200841904Y-40176190D01*
X201746666Y-39652380D02*
X202413333Y-39652380D01*
X201984761Y-40652380D01*
%TO.C,C2*%
X201433333Y-47157142D02*
X201385714Y-47204761D01*
X201242857Y-47252380D01*
X201147619Y-47252380D01*
X201004761Y-47204761D01*
X200909523Y-47109523D01*
X200861904Y-47014285D01*
X200814285Y-46823809D01*
X200814285Y-46680952D01*
X200861904Y-46490476D01*
X200909523Y-46395238D01*
X201004761Y-46300000D01*
X201147619Y-46252380D01*
X201242857Y-46252380D01*
X201385714Y-46300000D01*
X201433333Y-46347619D01*
X201814285Y-46347619D02*
X201861904Y-46300000D01*
X201957142Y-46252380D01*
X202195238Y-46252380D01*
X202290476Y-46300000D01*
X202338095Y-46347619D01*
X202385714Y-46442857D01*
X202385714Y-46538095D01*
X202338095Y-46680952D01*
X201766666Y-47252380D01*
X202385714Y-47252380D01*
%TO.C,C5*%
X224813333Y-40957142D02*
X224765714Y-41004761D01*
X224622857Y-41052380D01*
X224527619Y-41052380D01*
X224384761Y-41004761D01*
X224289523Y-40909523D01*
X224241904Y-40814285D01*
X224194285Y-40623809D01*
X224194285Y-40480952D01*
X224241904Y-40290476D01*
X224289523Y-40195238D01*
X224384761Y-40100000D01*
X224527619Y-40052380D01*
X224622857Y-40052380D01*
X224765714Y-40100000D01*
X224813333Y-40147619D01*
X225718095Y-40052380D02*
X225241904Y-40052380D01*
X225194285Y-40528571D01*
X225241904Y-40480952D01*
X225337142Y-40433333D01*
X225575238Y-40433333D01*
X225670476Y-40480952D01*
X225718095Y-40528571D01*
X225765714Y-40623809D01*
X225765714Y-40861904D01*
X225718095Y-40957142D01*
X225670476Y-41004761D01*
X225575238Y-41052380D01*
X225337142Y-41052380D01*
X225241904Y-41004761D01*
X225194285Y-40957142D01*
%TO.C,Q3*%
X230244761Y-46332619D02*
X230149523Y-46285000D01*
X230054285Y-46189761D01*
X229911428Y-46046904D01*
X229816190Y-45999285D01*
X229720952Y-45999285D01*
X229768571Y-46237380D02*
X229673333Y-46189761D01*
X229578095Y-46094523D01*
X229530476Y-45904047D01*
X229530476Y-45570714D01*
X229578095Y-45380238D01*
X229673333Y-45285000D01*
X229768571Y-45237380D01*
X229959047Y-45237380D01*
X230054285Y-45285000D01*
X230149523Y-45380238D01*
X230197142Y-45570714D01*
X230197142Y-45904047D01*
X230149523Y-46094523D01*
X230054285Y-46189761D01*
X229959047Y-46237380D01*
X229768571Y-46237380D01*
X230530476Y-45237380D02*
X231149523Y-45237380D01*
X230816190Y-45618333D01*
X230959047Y-45618333D01*
X231054285Y-45665952D01*
X231101904Y-45713571D01*
X231149523Y-45808809D01*
X231149523Y-46046904D01*
X231101904Y-46142142D01*
X231054285Y-46189761D01*
X230959047Y-46237380D01*
X230673333Y-46237380D01*
X230578095Y-46189761D01*
X230530476Y-46142142D01*
%TO.C,RV1*%
X189004761Y-61852380D02*
X188671428Y-61376190D01*
X188433333Y-61852380D02*
X188433333Y-60852380D01*
X188814285Y-60852380D01*
X188909523Y-60900000D01*
X188957142Y-60947619D01*
X189004761Y-61042857D01*
X189004761Y-61185714D01*
X188957142Y-61280952D01*
X188909523Y-61328571D01*
X188814285Y-61376190D01*
X188433333Y-61376190D01*
X189290476Y-60852380D02*
X189623809Y-61852380D01*
X189957142Y-60852380D01*
X190814285Y-61852380D02*
X190242857Y-61852380D01*
X190528571Y-61852380D02*
X190528571Y-60852380D01*
X190433333Y-60995238D01*
X190338095Y-61090476D01*
X190242857Y-61138095D01*
%TO.C,R21*%
X228757142Y-65452380D02*
X228423809Y-64976190D01*
X228185714Y-65452380D02*
X228185714Y-64452380D01*
X228566666Y-64452380D01*
X228661904Y-64500000D01*
X228709523Y-64547619D01*
X228757142Y-64642857D01*
X228757142Y-64785714D01*
X228709523Y-64880952D01*
X228661904Y-64928571D01*
X228566666Y-64976190D01*
X228185714Y-64976190D01*
X229138095Y-64547619D02*
X229185714Y-64500000D01*
X229280952Y-64452380D01*
X229519047Y-64452380D01*
X229614285Y-64500000D01*
X229661904Y-64547619D01*
X229709523Y-64642857D01*
X229709523Y-64738095D01*
X229661904Y-64880952D01*
X229090476Y-65452380D01*
X229709523Y-65452380D01*
X230661904Y-65452380D02*
X230090476Y-65452380D01*
X230376190Y-65452380D02*
X230376190Y-64452380D01*
X230280952Y-64595238D01*
X230185714Y-64690476D01*
X230090476Y-64738095D01*
%TO.C,R8*%
X224633333Y-50652380D02*
X224300000Y-50176190D01*
X224061904Y-50652380D02*
X224061904Y-49652380D01*
X224442857Y-49652380D01*
X224538095Y-49700000D01*
X224585714Y-49747619D01*
X224633333Y-49842857D01*
X224633333Y-49985714D01*
X224585714Y-50080952D01*
X224538095Y-50128571D01*
X224442857Y-50176190D01*
X224061904Y-50176190D01*
X225204761Y-50080952D02*
X225109523Y-50033333D01*
X225061904Y-49985714D01*
X225014285Y-49890476D01*
X225014285Y-49842857D01*
X225061904Y-49747619D01*
X225109523Y-49700000D01*
X225204761Y-49652380D01*
X225395238Y-49652380D01*
X225490476Y-49700000D01*
X225538095Y-49747619D01*
X225585714Y-49842857D01*
X225585714Y-49890476D01*
X225538095Y-49985714D01*
X225490476Y-50033333D01*
X225395238Y-50080952D01*
X225204761Y-50080952D01*
X225109523Y-50128571D01*
X225061904Y-50176190D01*
X225014285Y-50271428D01*
X225014285Y-50461904D01*
X225061904Y-50557142D01*
X225109523Y-50604761D01*
X225204761Y-50652380D01*
X225395238Y-50652380D01*
X225490476Y-50604761D01*
X225538095Y-50557142D01*
X225585714Y-50461904D01*
X225585714Y-50271428D01*
X225538095Y-50176190D01*
X225490476Y-50128571D01*
X225395238Y-50080952D01*
%TO.C,R22*%
X228757142Y-62252380D02*
X228423809Y-61776190D01*
X228185714Y-62252380D02*
X228185714Y-61252380D01*
X228566666Y-61252380D01*
X228661904Y-61300000D01*
X228709523Y-61347619D01*
X228757142Y-61442857D01*
X228757142Y-61585714D01*
X228709523Y-61680952D01*
X228661904Y-61728571D01*
X228566666Y-61776190D01*
X228185714Y-61776190D01*
X229138095Y-61347619D02*
X229185714Y-61300000D01*
X229280952Y-61252380D01*
X229519047Y-61252380D01*
X229614285Y-61300000D01*
X229661904Y-61347619D01*
X229709523Y-61442857D01*
X229709523Y-61538095D01*
X229661904Y-61680952D01*
X229090476Y-62252380D01*
X229709523Y-62252380D01*
X230090476Y-61347619D02*
X230138095Y-61300000D01*
X230233333Y-61252380D01*
X230471428Y-61252380D01*
X230566666Y-61300000D01*
X230614285Y-61347619D01*
X230661904Y-61442857D01*
X230661904Y-61538095D01*
X230614285Y-61680952D01*
X230042857Y-62252380D01*
X230661904Y-62252380D01*
%TO.C,J1*%
X187716666Y-103587380D02*
X187716666Y-104301666D01*
X187669047Y-104444523D01*
X187573809Y-104539761D01*
X187430952Y-104587380D01*
X187335714Y-104587380D01*
X188716666Y-104587380D02*
X188145238Y-104587380D01*
X188430952Y-104587380D02*
X188430952Y-103587380D01*
X188335714Y-103730238D01*
X188240476Y-103825476D01*
X188145238Y-103873095D01*
%TO.C,R17*%
X224137142Y-34652380D02*
X223803809Y-34176190D01*
X223565714Y-34652380D02*
X223565714Y-33652380D01*
X223946666Y-33652380D01*
X224041904Y-33700000D01*
X224089523Y-33747619D01*
X224137142Y-33842857D01*
X224137142Y-33985714D01*
X224089523Y-34080952D01*
X224041904Y-34128571D01*
X223946666Y-34176190D01*
X223565714Y-34176190D01*
X225089523Y-34652380D02*
X224518095Y-34652380D01*
X224803809Y-34652380D02*
X224803809Y-33652380D01*
X224708571Y-33795238D01*
X224613333Y-33890476D01*
X224518095Y-33938095D01*
X225422857Y-33652380D02*
X226089523Y-33652380D01*
X225660952Y-34652380D01*
%TO.C,Q1*%
X189724761Y-49262619D02*
X189629523Y-49215000D01*
X189534285Y-49119761D01*
X189391428Y-48976904D01*
X189296190Y-48929285D01*
X189200952Y-48929285D01*
X189248571Y-49167380D02*
X189153333Y-49119761D01*
X189058095Y-49024523D01*
X189010476Y-48834047D01*
X189010476Y-48500714D01*
X189058095Y-48310238D01*
X189153333Y-48215000D01*
X189248571Y-48167380D01*
X189439047Y-48167380D01*
X189534285Y-48215000D01*
X189629523Y-48310238D01*
X189677142Y-48500714D01*
X189677142Y-48834047D01*
X189629523Y-49024523D01*
X189534285Y-49119761D01*
X189439047Y-49167380D01*
X189248571Y-49167380D01*
X190629523Y-49167380D02*
X190058095Y-49167380D01*
X190343809Y-49167380D02*
X190343809Y-48167380D01*
X190248571Y-48310238D01*
X190153333Y-48405476D01*
X190058095Y-48453095D01*
%TO.C,C8*%
X227033333Y-68557142D02*
X226985714Y-68604761D01*
X226842857Y-68652380D01*
X226747619Y-68652380D01*
X226604761Y-68604761D01*
X226509523Y-68509523D01*
X226461904Y-68414285D01*
X226414285Y-68223809D01*
X226414285Y-68080952D01*
X226461904Y-67890476D01*
X226509523Y-67795238D01*
X226604761Y-67700000D01*
X226747619Y-67652380D01*
X226842857Y-67652380D01*
X226985714Y-67700000D01*
X227033333Y-67747619D01*
X227604761Y-68080952D02*
X227509523Y-68033333D01*
X227461904Y-67985714D01*
X227414285Y-67890476D01*
X227414285Y-67842857D01*
X227461904Y-67747619D01*
X227509523Y-67700000D01*
X227604761Y-67652380D01*
X227795238Y-67652380D01*
X227890476Y-67700000D01*
X227938095Y-67747619D01*
X227985714Y-67842857D01*
X227985714Y-67890476D01*
X227938095Y-67985714D01*
X227890476Y-68033333D01*
X227795238Y-68080952D01*
X227604761Y-68080952D01*
X227509523Y-68128571D01*
X227461904Y-68176190D01*
X227414285Y-68271428D01*
X227414285Y-68461904D01*
X227461904Y-68557142D01*
X227509523Y-68604761D01*
X227604761Y-68652380D01*
X227795238Y-68652380D01*
X227890476Y-68604761D01*
X227938095Y-68557142D01*
X227985714Y-68461904D01*
X227985714Y-68271428D01*
X227938095Y-68176190D01*
X227890476Y-68128571D01*
X227795238Y-68080952D01*
%TO.C,R1*%
X201493333Y-53652380D02*
X201160000Y-53176190D01*
X200921904Y-53652380D02*
X200921904Y-52652380D01*
X201302857Y-52652380D01*
X201398095Y-52700000D01*
X201445714Y-52747619D01*
X201493333Y-52842857D01*
X201493333Y-52985714D01*
X201445714Y-53080952D01*
X201398095Y-53128571D01*
X201302857Y-53176190D01*
X200921904Y-53176190D01*
X202445714Y-53652380D02*
X201874285Y-53652380D01*
X202160000Y-53652380D02*
X202160000Y-52652380D01*
X202064761Y-52795238D01*
X201969523Y-52890476D01*
X201874285Y-52938095D01*
%TO.C,C9*%
X255883333Y-80207142D02*
X255835714Y-80254761D01*
X255692857Y-80302380D01*
X255597619Y-80302380D01*
X255454761Y-80254761D01*
X255359523Y-80159523D01*
X255311904Y-80064285D01*
X255264285Y-79873809D01*
X255264285Y-79730952D01*
X255311904Y-79540476D01*
X255359523Y-79445238D01*
X255454761Y-79350000D01*
X255597619Y-79302380D01*
X255692857Y-79302380D01*
X255835714Y-79350000D01*
X255883333Y-79397619D01*
X256359523Y-80302380D02*
X256550000Y-80302380D01*
X256645238Y-80254761D01*
X256692857Y-80207142D01*
X256788095Y-80064285D01*
X256835714Y-79873809D01*
X256835714Y-79492857D01*
X256788095Y-79397619D01*
X256740476Y-79350000D01*
X256645238Y-79302380D01*
X256454761Y-79302380D01*
X256359523Y-79350000D01*
X256311904Y-79397619D01*
X256264285Y-79492857D01*
X256264285Y-79730952D01*
X256311904Y-79826190D01*
X256359523Y-79873809D01*
X256454761Y-79921428D01*
X256645238Y-79921428D01*
X256740476Y-79873809D01*
X256788095Y-79826190D01*
X256835714Y-79730952D01*
%TO.C,R20*%
X228557142Y-59052380D02*
X228223809Y-58576190D01*
X227985714Y-59052380D02*
X227985714Y-58052380D01*
X228366666Y-58052380D01*
X228461904Y-58100000D01*
X228509523Y-58147619D01*
X228557142Y-58242857D01*
X228557142Y-58385714D01*
X228509523Y-58480952D01*
X228461904Y-58528571D01*
X228366666Y-58576190D01*
X227985714Y-58576190D01*
X228938095Y-58147619D02*
X228985714Y-58100000D01*
X229080952Y-58052380D01*
X229319047Y-58052380D01*
X229414285Y-58100000D01*
X229461904Y-58147619D01*
X229509523Y-58242857D01*
X229509523Y-58338095D01*
X229461904Y-58480952D01*
X228890476Y-59052380D01*
X229509523Y-59052380D01*
X230128571Y-58052380D02*
X230223809Y-58052380D01*
X230319047Y-58100000D01*
X230366666Y-58147619D01*
X230414285Y-58242857D01*
X230461904Y-58433333D01*
X230461904Y-58671428D01*
X230414285Y-58861904D01*
X230366666Y-58957142D01*
X230319047Y-59004761D01*
X230223809Y-59052380D01*
X230128571Y-59052380D01*
X230033333Y-59004761D01*
X229985714Y-58957142D01*
X229938095Y-58861904D01*
X229890476Y-58671428D01*
X229890476Y-58433333D01*
X229938095Y-58242857D01*
X229985714Y-58147619D01*
X230033333Y-58100000D01*
X230128571Y-58052380D01*
%TO.C,R12*%
X208357142Y-106452380D02*
X208023809Y-105976190D01*
X207785714Y-106452380D02*
X207785714Y-105452380D01*
X208166666Y-105452380D01*
X208261904Y-105500000D01*
X208309523Y-105547619D01*
X208357142Y-105642857D01*
X208357142Y-105785714D01*
X208309523Y-105880952D01*
X208261904Y-105928571D01*
X208166666Y-105976190D01*
X207785714Y-105976190D01*
X209309523Y-106452380D02*
X208738095Y-106452380D01*
X209023809Y-106452380D02*
X209023809Y-105452380D01*
X208928571Y-105595238D01*
X208833333Y-105690476D01*
X208738095Y-105738095D01*
X209690476Y-105547619D02*
X209738095Y-105500000D01*
X209833333Y-105452380D01*
X210071428Y-105452380D01*
X210166666Y-105500000D01*
X210214285Y-105547619D01*
X210261904Y-105642857D01*
X210261904Y-105738095D01*
X210214285Y-105880952D01*
X209642857Y-106452380D01*
X210261904Y-106452380D01*
%TO.C,R26*%
X252557142Y-63852380D02*
X252223809Y-63376190D01*
X251985714Y-63852380D02*
X251985714Y-62852380D01*
X252366666Y-62852380D01*
X252461904Y-62900000D01*
X252509523Y-62947619D01*
X252557142Y-63042857D01*
X252557142Y-63185714D01*
X252509523Y-63280952D01*
X252461904Y-63328571D01*
X252366666Y-63376190D01*
X251985714Y-63376190D01*
X252938095Y-62947619D02*
X252985714Y-62900000D01*
X253080952Y-62852380D01*
X253319047Y-62852380D01*
X253414285Y-62900000D01*
X253461904Y-62947619D01*
X253509523Y-63042857D01*
X253509523Y-63138095D01*
X253461904Y-63280952D01*
X252890476Y-63852380D01*
X253509523Y-63852380D01*
X254366666Y-62852380D02*
X254176190Y-62852380D01*
X254080952Y-62900000D01*
X254033333Y-62947619D01*
X253938095Y-63090476D01*
X253890476Y-63280952D01*
X253890476Y-63661904D01*
X253938095Y-63757142D01*
X253985714Y-63804761D01*
X254080952Y-63852380D01*
X254271428Y-63852380D01*
X254366666Y-63804761D01*
X254414285Y-63757142D01*
X254461904Y-63661904D01*
X254461904Y-63423809D01*
X254414285Y-63328571D01*
X254366666Y-63280952D01*
X254271428Y-63233333D01*
X254080952Y-63233333D01*
X253985714Y-63280952D01*
X253938095Y-63328571D01*
X253890476Y-63423809D01*
%TO.C,RV2*%
X249004761Y-47652380D02*
X248671428Y-47176190D01*
X248433333Y-47652380D02*
X248433333Y-46652380D01*
X248814285Y-46652380D01*
X248909523Y-46700000D01*
X248957142Y-46747619D01*
X249004761Y-46842857D01*
X249004761Y-46985714D01*
X248957142Y-47080952D01*
X248909523Y-47128571D01*
X248814285Y-47176190D01*
X248433333Y-47176190D01*
X249290476Y-46652380D02*
X249623809Y-47652380D01*
X249957142Y-46652380D01*
X250242857Y-46747619D02*
X250290476Y-46700000D01*
X250385714Y-46652380D01*
X250623809Y-46652380D01*
X250719047Y-46700000D01*
X250766666Y-46747619D01*
X250814285Y-46842857D01*
X250814285Y-46938095D01*
X250766666Y-47080952D01*
X250195238Y-47652380D01*
X250814285Y-47652380D01*
%TO.C,Q2*%
X189684761Y-39732619D02*
X189589523Y-39685000D01*
X189494285Y-39589761D01*
X189351428Y-39446904D01*
X189256190Y-39399285D01*
X189160952Y-39399285D01*
X189208571Y-39637380D02*
X189113333Y-39589761D01*
X189018095Y-39494523D01*
X188970476Y-39304047D01*
X188970476Y-38970714D01*
X189018095Y-38780238D01*
X189113333Y-38685000D01*
X189208571Y-38637380D01*
X189399047Y-38637380D01*
X189494285Y-38685000D01*
X189589523Y-38780238D01*
X189637142Y-38970714D01*
X189637142Y-39304047D01*
X189589523Y-39494523D01*
X189494285Y-39589761D01*
X189399047Y-39637380D01*
X189208571Y-39637380D01*
X190018095Y-38732619D02*
X190065714Y-38685000D01*
X190160952Y-38637380D01*
X190399047Y-38637380D01*
X190494285Y-38685000D01*
X190541904Y-38732619D01*
X190589523Y-38827857D01*
X190589523Y-38923095D01*
X190541904Y-39065952D01*
X189970476Y-39637380D01*
X190589523Y-39637380D01*
%TO.C,R23*%
X252557142Y-67052380D02*
X252223809Y-66576190D01*
X251985714Y-67052380D02*
X251985714Y-66052380D01*
X252366666Y-66052380D01*
X252461904Y-66100000D01*
X252509523Y-66147619D01*
X252557142Y-66242857D01*
X252557142Y-66385714D01*
X252509523Y-66480952D01*
X252461904Y-66528571D01*
X252366666Y-66576190D01*
X251985714Y-66576190D01*
X252938095Y-66147619D02*
X252985714Y-66100000D01*
X253080952Y-66052380D01*
X253319047Y-66052380D01*
X253414285Y-66100000D01*
X253461904Y-66147619D01*
X253509523Y-66242857D01*
X253509523Y-66338095D01*
X253461904Y-66480952D01*
X252890476Y-67052380D01*
X253509523Y-67052380D01*
X253842857Y-66052380D02*
X254461904Y-66052380D01*
X254128571Y-66433333D01*
X254271428Y-66433333D01*
X254366666Y-66480952D01*
X254414285Y-66528571D01*
X254461904Y-66623809D01*
X254461904Y-66861904D01*
X254414285Y-66957142D01*
X254366666Y-67004761D01*
X254271428Y-67052380D01*
X253985714Y-67052380D01*
X253890476Y-67004761D01*
X253842857Y-66957142D01*
%TO.C,J3*%
X178216666Y-114844880D02*
X178216666Y-115559166D01*
X178169047Y-115702023D01*
X178073809Y-115797261D01*
X177930952Y-115844880D01*
X177835714Y-115844880D01*
X178597619Y-114844880D02*
X179216666Y-114844880D01*
X178883333Y-115225833D01*
X179026190Y-115225833D01*
X179121428Y-115273452D01*
X179169047Y-115321071D01*
X179216666Y-115416309D01*
X179216666Y-115654404D01*
X179169047Y-115749642D01*
X179121428Y-115797261D01*
X179026190Y-115844880D01*
X178740476Y-115844880D01*
X178645238Y-115797261D01*
X178597619Y-115749642D01*
%TO.C,R24*%
X243052380Y-78702857D02*
X242576190Y-79036190D01*
X243052380Y-79274285D02*
X242052380Y-79274285D01*
X242052380Y-78893333D01*
X242100000Y-78798095D01*
X242147619Y-78750476D01*
X242242857Y-78702857D01*
X242385714Y-78702857D01*
X242480952Y-78750476D01*
X242528571Y-78798095D01*
X242576190Y-78893333D01*
X242576190Y-79274285D01*
X242147619Y-78321904D02*
X242100000Y-78274285D01*
X242052380Y-78179047D01*
X242052380Y-77940952D01*
X242100000Y-77845714D01*
X242147619Y-77798095D01*
X242242857Y-77750476D01*
X242338095Y-77750476D01*
X242480952Y-77798095D01*
X243052380Y-78369523D01*
X243052380Y-77750476D01*
X242385714Y-76893333D02*
X243052380Y-76893333D01*
X242004761Y-77131428D02*
X242719047Y-77369523D01*
X242719047Y-76750476D01*
%TO.C,D3*%
X249452380Y-77738095D02*
X248452380Y-77738095D01*
X248452380Y-77500000D01*
X248500000Y-77357142D01*
X248595238Y-77261904D01*
X248690476Y-77214285D01*
X248880952Y-77166666D01*
X249023809Y-77166666D01*
X249214285Y-77214285D01*
X249309523Y-77261904D01*
X249404761Y-77357142D01*
X249452380Y-77500000D01*
X249452380Y-77738095D01*
X248452380Y-76833333D02*
X248452380Y-76214285D01*
X248833333Y-76547619D01*
X248833333Y-76404761D01*
X248880952Y-76309523D01*
X248928571Y-76261904D01*
X249023809Y-76214285D01*
X249261904Y-76214285D01*
X249357142Y-76261904D01*
X249404761Y-76309523D01*
X249452380Y-76404761D01*
X249452380Y-76690476D01*
X249404761Y-76785714D01*
X249357142Y-76833333D01*
X249452380Y-71661904D02*
X248452380Y-71661904D01*
X249452380Y-71090476D02*
X248880952Y-71519047D01*
X248452380Y-71090476D02*
X249023809Y-71661904D01*
%TO.C,R25*%
X252557142Y-57452380D02*
X252223809Y-56976190D01*
X251985714Y-57452380D02*
X251985714Y-56452380D01*
X252366666Y-56452380D01*
X252461904Y-56500000D01*
X252509523Y-56547619D01*
X252557142Y-56642857D01*
X252557142Y-56785714D01*
X252509523Y-56880952D01*
X252461904Y-56928571D01*
X252366666Y-56976190D01*
X251985714Y-56976190D01*
X252938095Y-56547619D02*
X252985714Y-56500000D01*
X253080952Y-56452380D01*
X253319047Y-56452380D01*
X253414285Y-56500000D01*
X253461904Y-56547619D01*
X253509523Y-56642857D01*
X253509523Y-56738095D01*
X253461904Y-56880952D01*
X252890476Y-57452380D01*
X253509523Y-57452380D01*
X254414285Y-56452380D02*
X253938095Y-56452380D01*
X253890476Y-56928571D01*
X253938095Y-56880952D01*
X254033333Y-56833333D01*
X254271428Y-56833333D01*
X254366666Y-56880952D01*
X254414285Y-56928571D01*
X254461904Y-57023809D01*
X254461904Y-57261904D01*
X254414285Y-57357142D01*
X254366666Y-57404761D01*
X254271428Y-57452380D01*
X254033333Y-57452380D01*
X253938095Y-57404761D01*
X253890476Y-57357142D01*
%TO.C,C4*%
X224613333Y-47357142D02*
X224565714Y-47404761D01*
X224422857Y-47452380D01*
X224327619Y-47452380D01*
X224184761Y-47404761D01*
X224089523Y-47309523D01*
X224041904Y-47214285D01*
X223994285Y-47023809D01*
X223994285Y-46880952D01*
X224041904Y-46690476D01*
X224089523Y-46595238D01*
X224184761Y-46500000D01*
X224327619Y-46452380D01*
X224422857Y-46452380D01*
X224565714Y-46500000D01*
X224613333Y-46547619D01*
X225470476Y-46785714D02*
X225470476Y-47452380D01*
X225232380Y-46404761D02*
X224994285Y-47119047D01*
X225613333Y-47119047D01*
%TO.C,R5*%
X185433333Y-69252380D02*
X185100000Y-68776190D01*
X184861904Y-69252380D02*
X184861904Y-68252380D01*
X185242857Y-68252380D01*
X185338095Y-68300000D01*
X185385714Y-68347619D01*
X185433333Y-68442857D01*
X185433333Y-68585714D01*
X185385714Y-68680952D01*
X185338095Y-68728571D01*
X185242857Y-68776190D01*
X184861904Y-68776190D01*
X186338095Y-68252380D02*
X185861904Y-68252380D01*
X185814285Y-68728571D01*
X185861904Y-68680952D01*
X185957142Y-68633333D01*
X186195238Y-68633333D01*
X186290476Y-68680952D01*
X186338095Y-68728571D01*
X186385714Y-68823809D01*
X186385714Y-69061904D01*
X186338095Y-69157142D01*
X186290476Y-69204761D01*
X186195238Y-69252380D01*
X185957142Y-69252380D01*
X185861904Y-69204761D01*
X185814285Y-69157142D01*
%TO.C,C12*%
X252357142Y-60557142D02*
X252309523Y-60604761D01*
X252166666Y-60652380D01*
X252071428Y-60652380D01*
X251928571Y-60604761D01*
X251833333Y-60509523D01*
X251785714Y-60414285D01*
X251738095Y-60223809D01*
X251738095Y-60080952D01*
X251785714Y-59890476D01*
X251833333Y-59795238D01*
X251928571Y-59700000D01*
X252071428Y-59652380D01*
X252166666Y-59652380D01*
X252309523Y-59700000D01*
X252357142Y-59747619D01*
X253309523Y-60652380D02*
X252738095Y-60652380D01*
X253023809Y-60652380D02*
X253023809Y-59652380D01*
X252928571Y-59795238D01*
X252833333Y-59890476D01*
X252738095Y-59938095D01*
X253690476Y-59747619D02*
X253738095Y-59700000D01*
X253833333Y-59652380D01*
X254071428Y-59652380D01*
X254166666Y-59700000D01*
X254214285Y-59747619D01*
X254261904Y-59842857D01*
X254261904Y-59938095D01*
X254214285Y-60080952D01*
X253642857Y-60652380D01*
X254261904Y-60652380D01*
%TO.C,J2*%
X249116666Y-84767380D02*
X249116666Y-85481666D01*
X249069047Y-85624523D01*
X248973809Y-85719761D01*
X248830952Y-85767380D01*
X248735714Y-85767380D01*
X249545238Y-84862619D02*
X249592857Y-84815000D01*
X249688095Y-84767380D01*
X249926190Y-84767380D01*
X250021428Y-84815000D01*
X250069047Y-84862619D01*
X250116666Y-84957857D01*
X250116666Y-85053095D01*
X250069047Y-85195952D01*
X249497619Y-85767380D01*
X250116666Y-85767380D01*
%TO.C,R11*%
X205852380Y-87042857D02*
X205376190Y-87376190D01*
X205852380Y-87614285D02*
X204852380Y-87614285D01*
X204852380Y-87233333D01*
X204900000Y-87138095D01*
X204947619Y-87090476D01*
X205042857Y-87042857D01*
X205185714Y-87042857D01*
X205280952Y-87090476D01*
X205328571Y-87138095D01*
X205376190Y-87233333D01*
X205376190Y-87614285D01*
X205852380Y-86090476D02*
X205852380Y-86661904D01*
X205852380Y-86376190D02*
X204852380Y-86376190D01*
X204995238Y-86471428D01*
X205090476Y-86566666D01*
X205138095Y-86661904D01*
X205852380Y-85138095D02*
X205852380Y-85709523D01*
X205852380Y-85423809D02*
X204852380Y-85423809D01*
X204995238Y-85519047D01*
X205090476Y-85614285D01*
X205138095Y-85709523D01*
%TO.C,U1*%
X212628095Y-34482380D02*
X212628095Y-35291904D01*
X212675714Y-35387142D01*
X212723333Y-35434761D01*
X212818571Y-35482380D01*
X213009047Y-35482380D01*
X213104285Y-35434761D01*
X213151904Y-35387142D01*
X213199523Y-35291904D01*
X213199523Y-34482380D01*
X214199523Y-35482380D02*
X213628095Y-35482380D01*
X213913809Y-35482380D02*
X213913809Y-34482380D01*
X213818571Y-34625238D01*
X213723333Y-34720476D01*
X213628095Y-34768095D01*
%TO.C,R16*%
X224157142Y-44252380D02*
X223823809Y-43776190D01*
X223585714Y-44252380D02*
X223585714Y-43252380D01*
X223966666Y-43252380D01*
X224061904Y-43300000D01*
X224109523Y-43347619D01*
X224157142Y-43442857D01*
X224157142Y-43585714D01*
X224109523Y-43680952D01*
X224061904Y-43728571D01*
X223966666Y-43776190D01*
X223585714Y-43776190D01*
X225109523Y-44252380D02*
X224538095Y-44252380D01*
X224823809Y-44252380D02*
X224823809Y-43252380D01*
X224728571Y-43395238D01*
X224633333Y-43490476D01*
X224538095Y-43538095D01*
X225966666Y-43252380D02*
X225776190Y-43252380D01*
X225680952Y-43300000D01*
X225633333Y-43347619D01*
X225538095Y-43490476D01*
X225490476Y-43680952D01*
X225490476Y-44061904D01*
X225538095Y-44157142D01*
X225585714Y-44204761D01*
X225680952Y-44252380D01*
X225871428Y-44252380D01*
X225966666Y-44204761D01*
X226014285Y-44157142D01*
X226061904Y-44061904D01*
X226061904Y-43823809D01*
X226014285Y-43728571D01*
X225966666Y-43680952D01*
X225871428Y-43633333D01*
X225680952Y-43633333D01*
X225585714Y-43680952D01*
X225538095Y-43728571D01*
X225490476Y-43823809D01*
%TO.C,R4*%
X224613333Y-31452380D02*
X224280000Y-30976190D01*
X224041904Y-31452380D02*
X224041904Y-30452380D01*
X224422857Y-30452380D01*
X224518095Y-30500000D01*
X224565714Y-30547619D01*
X224613333Y-30642857D01*
X224613333Y-30785714D01*
X224565714Y-30880952D01*
X224518095Y-30928571D01*
X224422857Y-30976190D01*
X224041904Y-30976190D01*
X225470476Y-30785714D02*
X225470476Y-31452380D01*
X225232380Y-30404761D02*
X224994285Y-31119047D01*
X225613333Y-31119047D01*
%TO.C,LFO1*%
X240210952Y-60652380D02*
X239734761Y-60652380D01*
X239734761Y-59652380D01*
X240877619Y-60128571D02*
X240544285Y-60128571D01*
X240544285Y-60652380D02*
X240544285Y-59652380D01*
X241020476Y-59652380D01*
X241591904Y-59652380D02*
X241782380Y-59652380D01*
X241877619Y-59700000D01*
X241972857Y-59795238D01*
X242020476Y-59985714D01*
X242020476Y-60319047D01*
X241972857Y-60509523D01*
X241877619Y-60604761D01*
X241782380Y-60652380D01*
X241591904Y-60652380D01*
X241496666Y-60604761D01*
X241401428Y-60509523D01*
X241353809Y-60319047D01*
X241353809Y-59985714D01*
X241401428Y-59795238D01*
X241496666Y-59700000D01*
X241591904Y-59652380D01*
X242972857Y-60652380D02*
X242401428Y-60652380D01*
X242687142Y-60652380D02*
X242687142Y-59652380D01*
X242591904Y-59795238D01*
X242496666Y-59890476D01*
X242401428Y-59938095D01*
%TO.C,R18*%
X194957142Y-85252380D02*
X194623809Y-84776190D01*
X194385714Y-85252380D02*
X194385714Y-84252380D01*
X194766666Y-84252380D01*
X194861904Y-84300000D01*
X194909523Y-84347619D01*
X194957142Y-84442857D01*
X194957142Y-84585714D01*
X194909523Y-84680952D01*
X194861904Y-84728571D01*
X194766666Y-84776190D01*
X194385714Y-84776190D01*
X195909523Y-85252380D02*
X195338095Y-85252380D01*
X195623809Y-85252380D02*
X195623809Y-84252380D01*
X195528571Y-84395238D01*
X195433333Y-84490476D01*
X195338095Y-84538095D01*
X196480952Y-84680952D02*
X196385714Y-84633333D01*
X196338095Y-84585714D01*
X196290476Y-84490476D01*
X196290476Y-84442857D01*
X196338095Y-84347619D01*
X196385714Y-84300000D01*
X196480952Y-84252380D01*
X196671428Y-84252380D01*
X196766666Y-84300000D01*
X196814285Y-84347619D01*
X196861904Y-84442857D01*
X196861904Y-84490476D01*
X196814285Y-84585714D01*
X196766666Y-84633333D01*
X196671428Y-84680952D01*
X196480952Y-84680952D01*
X196385714Y-84728571D01*
X196338095Y-84776190D01*
X196290476Y-84871428D01*
X196290476Y-85061904D01*
X196338095Y-85157142D01*
X196385714Y-85204761D01*
X196480952Y-85252380D01*
X196671428Y-85252380D01*
X196766666Y-85204761D01*
X196814285Y-85157142D01*
X196861904Y-85061904D01*
X196861904Y-84871428D01*
X196814285Y-84776190D01*
X196766666Y-84728571D01*
X196671428Y-84680952D01*
%TO.C,R3*%
X224613333Y-53852380D02*
X224280000Y-53376190D01*
X224041904Y-53852380D02*
X224041904Y-52852380D01*
X224422857Y-52852380D01*
X224518095Y-52900000D01*
X224565714Y-52947619D01*
X224613333Y-53042857D01*
X224613333Y-53185714D01*
X224565714Y-53280952D01*
X224518095Y-53328571D01*
X224422857Y-53376190D01*
X224041904Y-53376190D01*
X224946666Y-52852380D02*
X225565714Y-52852380D01*
X225232380Y-53233333D01*
X225375238Y-53233333D01*
X225470476Y-53280952D01*
X225518095Y-53328571D01*
X225565714Y-53423809D01*
X225565714Y-53661904D01*
X225518095Y-53757142D01*
X225470476Y-53804761D01*
X225375238Y-53852380D01*
X225089523Y-53852380D01*
X224994285Y-53804761D01*
X224946666Y-53757142D01*
%TO.C,RV3*%
X249004761Y-37452380D02*
X248671428Y-36976190D01*
X248433333Y-37452380D02*
X248433333Y-36452380D01*
X248814285Y-36452380D01*
X248909523Y-36500000D01*
X248957142Y-36547619D01*
X249004761Y-36642857D01*
X249004761Y-36785714D01*
X248957142Y-36880952D01*
X248909523Y-36928571D01*
X248814285Y-36976190D01*
X248433333Y-36976190D01*
X249290476Y-36452380D02*
X249623809Y-37452380D01*
X249957142Y-36452380D01*
X250195238Y-36452380D02*
X250814285Y-36452380D01*
X250480952Y-36833333D01*
X250623809Y-36833333D01*
X250719047Y-36880952D01*
X250766666Y-36928571D01*
X250814285Y-37023809D01*
X250814285Y-37261904D01*
X250766666Y-37357142D01*
X250719047Y-37404761D01*
X250623809Y-37452380D01*
X250338095Y-37452380D01*
X250242857Y-37404761D01*
X250195238Y-37357142D01*
%TO.C,C7*%
X236633333Y-55557142D02*
X236585714Y-55604761D01*
X236442857Y-55652380D01*
X236347619Y-55652380D01*
X236204761Y-55604761D01*
X236109523Y-55509523D01*
X236061904Y-55414285D01*
X236014285Y-55223809D01*
X236014285Y-55080952D01*
X236061904Y-54890476D01*
X236109523Y-54795238D01*
X236204761Y-54700000D01*
X236347619Y-54652380D01*
X236442857Y-54652380D01*
X236585714Y-54700000D01*
X236633333Y-54747619D01*
X236966666Y-54652380D02*
X237633333Y-54652380D01*
X237204761Y-55652380D01*
%TO.C,R10*%
X211137142Y-57052380D02*
X210803809Y-56576190D01*
X210565714Y-57052380D02*
X210565714Y-56052380D01*
X210946666Y-56052380D01*
X211041904Y-56100000D01*
X211089523Y-56147619D01*
X211137142Y-56242857D01*
X211137142Y-56385714D01*
X211089523Y-56480952D01*
X211041904Y-56528571D01*
X210946666Y-56576190D01*
X210565714Y-56576190D01*
X212089523Y-57052380D02*
X211518095Y-57052380D01*
X211803809Y-57052380D02*
X211803809Y-56052380D01*
X211708571Y-56195238D01*
X211613333Y-56290476D01*
X211518095Y-56338095D01*
X212708571Y-56052380D02*
X212803809Y-56052380D01*
X212899047Y-56100000D01*
X212946666Y-56147619D01*
X212994285Y-56242857D01*
X213041904Y-56433333D01*
X213041904Y-56671428D01*
X212994285Y-56861904D01*
X212946666Y-56957142D01*
X212899047Y-57004761D01*
X212803809Y-57052380D01*
X212708571Y-57052380D01*
X212613333Y-57004761D01*
X212565714Y-56957142D01*
X212518095Y-56861904D01*
X212470476Y-56671428D01*
X212470476Y-56433333D01*
X212518095Y-56242857D01*
X212565714Y-56147619D01*
X212613333Y-56100000D01*
X212708571Y-56052380D01*
%TO.C,R13*%
X209757142Y-70652380D02*
X209423809Y-70176190D01*
X209185714Y-70652380D02*
X209185714Y-69652380D01*
X209566666Y-69652380D01*
X209661904Y-69700000D01*
X209709523Y-69747619D01*
X209757142Y-69842857D01*
X209757142Y-69985714D01*
X209709523Y-70080952D01*
X209661904Y-70128571D01*
X209566666Y-70176190D01*
X209185714Y-70176190D01*
X210709523Y-70652380D02*
X210138095Y-70652380D01*
X210423809Y-70652380D02*
X210423809Y-69652380D01*
X210328571Y-69795238D01*
X210233333Y-69890476D01*
X210138095Y-69938095D01*
X211042857Y-69652380D02*
X211661904Y-69652380D01*
X211328571Y-70033333D01*
X211471428Y-70033333D01*
X211566666Y-70080952D01*
X211614285Y-70128571D01*
X211661904Y-70223809D01*
X211661904Y-70461904D01*
X211614285Y-70557142D01*
X211566666Y-70604761D01*
X211471428Y-70652380D01*
X211185714Y-70652380D01*
X211090476Y-70604761D01*
X211042857Y-70557142D01*
%TO.C,C6*%
X187633333Y-72357142D02*
X187585714Y-72404761D01*
X187442857Y-72452380D01*
X187347619Y-72452380D01*
X187204761Y-72404761D01*
X187109523Y-72309523D01*
X187061904Y-72214285D01*
X187014285Y-72023809D01*
X187014285Y-71880952D01*
X187061904Y-71690476D01*
X187109523Y-71595238D01*
X187204761Y-71500000D01*
X187347619Y-71452380D01*
X187442857Y-71452380D01*
X187585714Y-71500000D01*
X187633333Y-71547619D01*
X188490476Y-71452380D02*
X188300000Y-71452380D01*
X188204761Y-71500000D01*
X188157142Y-71547619D01*
X188061904Y-71690476D01*
X188014285Y-71880952D01*
X188014285Y-72261904D01*
X188061904Y-72357142D01*
X188109523Y-72404761D01*
X188204761Y-72452380D01*
X188395238Y-72452380D01*
X188490476Y-72404761D01*
X188538095Y-72357142D01*
X188585714Y-72261904D01*
X188585714Y-72023809D01*
X188538095Y-71928571D01*
X188490476Y-71880952D01*
X188395238Y-71833333D01*
X188204761Y-71833333D01*
X188109523Y-71880952D01*
X188061904Y-71928571D01*
X188014285Y-72023809D01*
%TO.C,D1*%
X215051904Y-95307380D02*
X215051904Y-94307380D01*
X215290000Y-94307380D01*
X215432857Y-94355000D01*
X215528095Y-94450238D01*
X215575714Y-94545476D01*
X215623333Y-94735952D01*
X215623333Y-94878809D01*
X215575714Y-95069285D01*
X215528095Y-95164523D01*
X215432857Y-95259761D01*
X215290000Y-95307380D01*
X215051904Y-95307380D01*
X216575714Y-95307380D02*
X216004285Y-95307380D01*
X216290000Y-95307380D02*
X216290000Y-94307380D01*
X216194761Y-94450238D01*
X216099523Y-94545476D01*
X216004285Y-94593095D01*
%TO.C,C1*%
X205757142Y-76166666D02*
X205804761Y-76214285D01*
X205852380Y-76357142D01*
X205852380Y-76452380D01*
X205804761Y-76595238D01*
X205709523Y-76690476D01*
X205614285Y-76738095D01*
X205423809Y-76785714D01*
X205280952Y-76785714D01*
X205090476Y-76738095D01*
X204995238Y-76690476D01*
X204900000Y-76595238D01*
X204852380Y-76452380D01*
X204852380Y-76357142D01*
X204900000Y-76214285D01*
X204947619Y-76166666D01*
X205852380Y-75214285D02*
X205852380Y-75785714D01*
X205852380Y-75500000D02*
X204852380Y-75500000D01*
X204995238Y-75595238D01*
X205090476Y-75690476D01*
X205138095Y-75785714D01*
%TO.C,R14*%
X200937142Y-44052380D02*
X200603809Y-43576190D01*
X200365714Y-44052380D02*
X200365714Y-43052380D01*
X200746666Y-43052380D01*
X200841904Y-43100000D01*
X200889523Y-43147619D01*
X200937142Y-43242857D01*
X200937142Y-43385714D01*
X200889523Y-43480952D01*
X200841904Y-43528571D01*
X200746666Y-43576190D01*
X200365714Y-43576190D01*
X201889523Y-44052380D02*
X201318095Y-44052380D01*
X201603809Y-44052380D02*
X201603809Y-43052380D01*
X201508571Y-43195238D01*
X201413333Y-43290476D01*
X201318095Y-43338095D01*
X202746666Y-43385714D02*
X202746666Y-44052380D01*
X202508571Y-43004761D02*
X202270476Y-43719047D01*
X202889523Y-43719047D01*
%TO.C,R19*%
X219252380Y-86442857D02*
X218776190Y-86776190D01*
X219252380Y-87014285D02*
X218252380Y-87014285D01*
X218252380Y-86633333D01*
X218300000Y-86538095D01*
X218347619Y-86490476D01*
X218442857Y-86442857D01*
X218585714Y-86442857D01*
X218680952Y-86490476D01*
X218728571Y-86538095D01*
X218776190Y-86633333D01*
X218776190Y-87014285D01*
X219252380Y-85490476D02*
X219252380Y-86061904D01*
X219252380Y-85776190D02*
X218252380Y-85776190D01*
X218395238Y-85871428D01*
X218490476Y-85966666D01*
X218538095Y-86061904D01*
X219252380Y-85014285D02*
X219252380Y-84823809D01*
X219204761Y-84728571D01*
X219157142Y-84680952D01*
X219014285Y-84585714D01*
X218823809Y-84538095D01*
X218442857Y-84538095D01*
X218347619Y-84585714D01*
X218300000Y-84633333D01*
X218252380Y-84728571D01*
X218252380Y-84919047D01*
X218300000Y-85014285D01*
X218347619Y-85061904D01*
X218442857Y-85109523D01*
X218680952Y-85109523D01*
X218776190Y-85061904D01*
X218823809Y-85014285D01*
X218871428Y-84919047D01*
X218871428Y-84728571D01*
X218823809Y-84633333D01*
X218776190Y-84585714D01*
X218680952Y-84538095D01*
%TO.C,R9*%
X224613333Y-37852380D02*
X224280000Y-37376190D01*
X224041904Y-37852380D02*
X224041904Y-36852380D01*
X224422857Y-36852380D01*
X224518095Y-36900000D01*
X224565714Y-36947619D01*
X224613333Y-37042857D01*
X224613333Y-37185714D01*
X224565714Y-37280952D01*
X224518095Y-37328571D01*
X224422857Y-37376190D01*
X224041904Y-37376190D01*
X225089523Y-37852380D02*
X225280000Y-37852380D01*
X225375238Y-37804761D01*
X225422857Y-37757142D01*
X225518095Y-37614285D01*
X225565714Y-37423809D01*
X225565714Y-37042857D01*
X225518095Y-36947619D01*
X225470476Y-36900000D01*
X225375238Y-36852380D01*
X225184761Y-36852380D01*
X225089523Y-36900000D01*
X225041904Y-36947619D01*
X224994285Y-37042857D01*
X224994285Y-37280952D01*
X225041904Y-37376190D01*
X225089523Y-37423809D01*
X225184761Y-37471428D01*
X225375238Y-37471428D01*
X225470476Y-37423809D01*
X225518095Y-37376190D01*
X225565714Y-37280952D01*
%TO.C,R6*%
X201493333Y-50452380D02*
X201160000Y-49976190D01*
X200921904Y-50452380D02*
X200921904Y-49452380D01*
X201302857Y-49452380D01*
X201398095Y-49500000D01*
X201445714Y-49547619D01*
X201493333Y-49642857D01*
X201493333Y-49785714D01*
X201445714Y-49880952D01*
X201398095Y-49928571D01*
X201302857Y-49976190D01*
X200921904Y-49976190D01*
X202350476Y-49452380D02*
X202160000Y-49452380D01*
X202064761Y-49500000D01*
X202017142Y-49547619D01*
X201921904Y-49690476D01*
X201874285Y-49880952D01*
X201874285Y-50261904D01*
X201921904Y-50357142D01*
X201969523Y-50404761D01*
X202064761Y-50452380D01*
X202255238Y-50452380D01*
X202350476Y-50404761D01*
X202398095Y-50357142D01*
X202445714Y-50261904D01*
X202445714Y-50023809D01*
X202398095Y-49928571D01*
X202350476Y-49880952D01*
X202255238Y-49833333D01*
X202064761Y-49833333D01*
X201969523Y-49880952D01*
X201921904Y-49928571D01*
X201874285Y-50023809D01*
%TO.C,Q4*%
X230284761Y-40732619D02*
X230189523Y-40685000D01*
X230094285Y-40589761D01*
X229951428Y-40446904D01*
X229856190Y-40399285D01*
X229760952Y-40399285D01*
X229808571Y-40637380D02*
X229713333Y-40589761D01*
X229618095Y-40494523D01*
X229570476Y-40304047D01*
X229570476Y-39970714D01*
X229618095Y-39780238D01*
X229713333Y-39685000D01*
X229808571Y-39637380D01*
X229999047Y-39637380D01*
X230094285Y-39685000D01*
X230189523Y-39780238D01*
X230237142Y-39970714D01*
X230237142Y-40304047D01*
X230189523Y-40494523D01*
X230094285Y-40589761D01*
X229999047Y-40637380D01*
X229808571Y-40637380D01*
X231094285Y-39970714D02*
X231094285Y-40637380D01*
X230856190Y-39589761D02*
X230618095Y-40304047D01*
X231237142Y-40304047D01*
D12*
%TO.C,U2*%
X201660000Y-71550000D02*
X201660000Y-61270000D01*
X201660000Y-61270000D02*
X200010000Y-61270000D01*
X196360000Y-61270000D02*
X196360000Y-71550000D01*
X198010000Y-61270000D02*
X196360000Y-61270000D01*
X196360000Y-71550000D02*
X201660000Y-71550000D01*
X198010000Y-61270000D02*
G75*
G03*
X200010000Y-61270000I1000000J0D01*
G01*
%TO.C,C11*%
X249130000Y-55170000D02*
X256870000Y-55170000D01*
X256870000Y-52430000D02*
X256870000Y-55170000D01*
X249130000Y-52430000D02*
X256870000Y-52430000D01*
X249130000Y-52430000D02*
X249130000Y-55170000D01*
%TO.C,D2*%
X247120000Y-78910000D02*
X247120000Y-74670000D01*
X244880000Y-74670000D02*
X244880000Y-78910000D01*
X244880000Y-78910000D02*
X247120000Y-78910000D01*
X247120000Y-75270000D02*
X244880000Y-75270000D01*
X246000000Y-79560000D02*
X246000000Y-78910000D01*
X247120000Y-74670000D02*
X244880000Y-74670000D01*
X246000000Y-74020000D02*
X246000000Y-74670000D01*
X247120000Y-75510000D02*
X244880000Y-75510000D01*
X247120000Y-75390000D02*
X244880000Y-75390000D01*
%TO.C,C10*%
X238030000Y-79800000D02*
X240770000Y-79800000D01*
X240770000Y-79800000D02*
X240770000Y-72060000D01*
X238030000Y-79800000D02*
X238030000Y-72060000D01*
X238030000Y-72060000D02*
X240770000Y-72060000D01*
%TO.C,R15*%
X205620000Y-30800000D02*
X204850000Y-30800000D01*
X197540000Y-30800000D02*
X198310000Y-30800000D01*
X198310000Y-32170000D02*
X204850000Y-32170000D01*
X204850000Y-32170000D02*
X204850000Y-29430000D01*
X198310000Y-29430000D02*
X198310000Y-32170000D01*
X204850000Y-29430000D02*
X198310000Y-29430000D01*
D13*
%TO.C,S1*%
X228597580Y-110101160D02*
X228597580Y-127098840D01*
X208902420Y-127098840D02*
X208902420Y-110101160D01*
X228597580Y-127098840D02*
X208902420Y-127098840D01*
X208902420Y-110101160D02*
X228597580Y-110101160D01*
D12*
%TO.C,C3*%
X199910000Y-35370000D02*
X207650000Y-35370000D01*
X199910000Y-32630000D02*
X207650000Y-32630000D01*
X199910000Y-32630000D02*
X199910000Y-35370000D01*
X207650000Y-32630000D02*
X207650000Y-35370000D01*
%TO.C,R2*%
X197560000Y-37200000D02*
X198330000Y-37200000D01*
X198330000Y-35830000D02*
X198330000Y-38570000D01*
X198330000Y-38570000D02*
X204870000Y-38570000D01*
X204870000Y-38570000D02*
X204870000Y-35830000D01*
X204870000Y-35830000D02*
X198330000Y-35830000D01*
X205640000Y-37200000D02*
X204870000Y-37200000D01*
%TO.C,R7*%
X205620000Y-40385000D02*
X204850000Y-40385000D01*
X198310000Y-39015000D02*
X198310000Y-41755000D01*
X204850000Y-41755000D02*
X204850000Y-39015000D01*
X198310000Y-41755000D02*
X204850000Y-41755000D01*
X204850000Y-39015000D02*
X198310000Y-39015000D01*
X197540000Y-40385000D02*
X198310000Y-40385000D01*
%TO.C,C2*%
X197710000Y-45415000D02*
X205450000Y-45415000D01*
X197710000Y-45415000D02*
X197710000Y-48155000D01*
X205450000Y-45415000D02*
X205450000Y-48155000D01*
X197710000Y-48155000D02*
X205450000Y-48155000D01*
%TO.C,C5*%
X228850000Y-41955000D02*
X228850000Y-39215000D01*
X228850000Y-41955000D02*
X221110000Y-41955000D01*
X221110000Y-41955000D02*
X221110000Y-39215000D01*
X228850000Y-39215000D02*
X221110000Y-39215000D01*
%TO.C,Q3*%
X235750000Y-47585000D02*
X235750000Y-43985000D01*
X235738478Y-43946522D02*
G75*
G03*
X231300000Y-45785000I-1838478J-1838478D01*
G01*
X231299999Y-45785000D02*
G75*
G03*
X235738478Y-47623478I2600001J0D01*
G01*
%TO.C,RV1*%
X185715000Y-65610000D02*
X181385000Y-65610000D01*
X185715000Y-62010000D02*
X181385000Y-62010000D01*
X185715000Y-64390000D02*
X181385000Y-64390000D01*
X185715000Y-57190000D02*
X181385000Y-57190000D01*
X185715000Y-58410000D02*
X181385000Y-58410000D01*
X185715000Y-60790000D02*
X181385000Y-60790000D01*
%TO.C,R21*%
X232670000Y-66370000D02*
X232670000Y-63630000D01*
X226130000Y-66370000D02*
X232670000Y-66370000D01*
X226130000Y-63630000D02*
X226130000Y-66370000D01*
X233440000Y-65000000D02*
X232670000Y-65000000D01*
X232670000Y-63630000D02*
X226130000Y-63630000D01*
X225360000Y-65000000D02*
X226130000Y-65000000D01*
%TO.C,R8*%
X228050000Y-51555000D02*
X228050000Y-48815000D01*
X228820000Y-50185000D02*
X228050000Y-50185000D01*
X221510000Y-48815000D02*
X221510000Y-51555000D01*
X221510000Y-51555000D02*
X228050000Y-51555000D01*
X228050000Y-48815000D02*
X221510000Y-48815000D01*
X220740000Y-50185000D02*
X221510000Y-50185000D01*
%TO.C,R22*%
X232590000Y-63170000D02*
X232590000Y-60430000D01*
X225280000Y-61800000D02*
X226050000Y-61800000D01*
X226050000Y-63170000D02*
X232590000Y-63170000D01*
X226050000Y-60430000D02*
X226050000Y-63170000D01*
X232590000Y-60430000D02*
X226050000Y-60430000D01*
X233360000Y-61800000D02*
X232590000Y-61800000D01*
%TO.C,J1*%
X201870000Y-86855000D02*
X176830000Y-86855000D01*
X168630000Y-87785000D02*
X168630000Y-99025000D01*
X176830000Y-102845000D02*
X176830000Y-86855000D01*
X168630000Y-99025000D02*
X176830000Y-99025000D01*
X168630000Y-87785000D02*
X176830000Y-87785000D01*
X201870000Y-86855000D02*
X201870000Y-102845000D01*
X201870000Y-102845000D02*
X176830000Y-102845000D01*
%TO.C,R17*%
X221510000Y-35555000D02*
X228050000Y-35555000D01*
X220740000Y-34185000D02*
X221510000Y-34185000D01*
X228820000Y-34185000D02*
X228050000Y-34185000D01*
X228050000Y-32815000D02*
X221510000Y-32815000D01*
X228050000Y-35555000D02*
X228050000Y-32815000D01*
X221510000Y-32815000D02*
X221510000Y-35555000D01*
%TO.C,Q1*%
X195230000Y-50515000D02*
X195230000Y-46915000D01*
X195218478Y-46876522D02*
G75*
G03*
X190780000Y-48715000I-1838478J-1838478D01*
G01*
X190779999Y-48715000D02*
G75*
G03*
X195218478Y-50553478I2600001J0D01*
G01*
%TO.C,C8*%
X223330000Y-69570000D02*
X223330000Y-66830000D01*
X231070000Y-69570000D02*
X223330000Y-69570000D01*
X231070000Y-69570000D02*
X231070000Y-66830000D01*
X231070000Y-66830000D02*
X223330000Y-66830000D01*
%TO.C,R1*%
X205700000Y-53185000D02*
X204930000Y-53185000D01*
X197620000Y-53185000D02*
X198390000Y-53185000D01*
X204930000Y-54555000D02*
X204930000Y-51815000D01*
X204930000Y-51815000D02*
X198390000Y-51815000D01*
X198390000Y-51815000D02*
X198390000Y-54555000D01*
X198390000Y-54555000D02*
X204930000Y-54555000D01*
%TO.C,C9*%
X254877000Y-79970000D02*
X253640000Y-79970000D01*
X254768000Y-80530000D02*
X253640000Y-80530000D01*
X251960000Y-80410000D02*
X250795000Y-80410000D01*
X254794000Y-80450000D02*
X253640000Y-80450000D01*
X254825000Y-80330000D02*
X253640000Y-80330000D01*
X254816000Y-80370000D02*
X253640000Y-80370000D01*
X254352000Y-81251000D02*
X253640000Y-81251000D01*
X254805000Y-80410000D02*
X253640000Y-80410000D01*
X251960000Y-80330000D02*
X250775000Y-80330000D01*
X251960000Y-80771000D02*
X250930000Y-80771000D01*
X251960000Y-80290000D02*
X250766000Y-80290000D01*
X254450000Y-81131000D02*
X253640000Y-81131000D01*
X254585000Y-80931000D02*
X253640000Y-80931000D01*
X251960000Y-80130000D02*
X250738000Y-80130000D01*
X251960000Y-80851000D02*
X250970000Y-80851000D01*
X251960000Y-80611000D02*
X250860000Y-80611000D01*
X254850000Y-80210000D02*
X253640000Y-80210000D01*
X253942000Y-81611000D02*
X251658000Y-81611000D01*
X254238000Y-81371000D02*
X253640000Y-81371000D01*
X254419000Y-81171000D02*
X253640000Y-81171000D01*
X254880000Y-79890000D02*
X253640000Y-79890000D01*
X251960000Y-81371000D02*
X251362000Y-81371000D01*
X251960000Y-80731000D02*
X250911000Y-80731000D01*
X253813000Y-81691000D02*
X251787000Y-81691000D01*
X251960000Y-81251000D02*
X251248000Y-81251000D01*
X251960000Y-81171000D02*
X251181000Y-81171000D01*
X251960000Y-80891000D02*
X250992000Y-80891000D01*
X254874000Y-80010000D02*
X253640000Y-80010000D01*
X251960000Y-80250000D02*
X250758000Y-80250000D01*
X251960000Y-80050000D02*
X250729000Y-80050000D01*
X254054000Y-81531000D02*
X251546000Y-81531000D01*
X251960000Y-80651000D02*
X250876000Y-80651000D01*
X254879000Y-79930000D02*
X253640000Y-79930000D01*
X254856000Y-80170000D02*
X253640000Y-80170000D01*
X253740000Y-81731000D02*
X251860000Y-81731000D01*
X254480000Y-81091000D02*
X253640000Y-81091000D01*
X251960000Y-81091000D02*
X251120000Y-81091000D01*
X253995000Y-77580199D02*
X253995000Y-77980199D01*
X254670000Y-80771000D02*
X253640000Y-80771000D01*
X251960000Y-81051000D02*
X251092000Y-81051000D01*
X254104000Y-81491000D02*
X251496000Y-81491000D01*
X251960000Y-81011000D02*
X251065000Y-81011000D01*
X251960000Y-80210000D02*
X250750000Y-80210000D01*
X254867000Y-80090000D02*
X253640000Y-80090000D01*
X251960000Y-79970000D02*
X250723000Y-79970000D01*
X251960000Y-80530000D02*
X250832000Y-80530000D01*
X254560000Y-80971000D02*
X253640000Y-80971000D01*
X254724000Y-80651000D02*
X253640000Y-80651000D01*
X251960000Y-80811000D02*
X250949000Y-80811000D01*
X251960000Y-79850000D02*
X250720000Y-79850000D01*
X254196000Y-81411000D02*
X253640000Y-81411000D01*
X254316000Y-81291000D02*
X253640000Y-81291000D01*
X254608000Y-80891000D02*
X253640000Y-80891000D01*
X251960000Y-80090000D02*
X250733000Y-80090000D01*
X254508000Y-81051000D02*
X253640000Y-81051000D01*
X251960000Y-80490000D02*
X250818000Y-80490000D01*
X253659000Y-81771000D02*
X251941000Y-81771000D01*
X251960000Y-80691000D02*
X250893000Y-80691000D01*
X254880000Y-79850000D02*
X253640000Y-79850000D01*
X254689000Y-80731000D02*
X253640000Y-80731000D01*
X254842000Y-80250000D02*
X253640000Y-80250000D01*
X254862000Y-80130000D02*
X253640000Y-80130000D01*
X251960000Y-80170000D02*
X250744000Y-80170000D01*
X254871000Y-80050000D02*
X253640000Y-80050000D01*
X251960000Y-79890000D02*
X250720000Y-79890000D01*
X254535000Y-81011000D02*
X253640000Y-81011000D01*
X254651000Y-80811000D02*
X253640000Y-80811000D01*
X254782000Y-80490000D02*
X253640000Y-80490000D01*
X251960000Y-81131000D02*
X251150000Y-81131000D01*
X254278000Y-81331000D02*
X253640000Y-81331000D01*
X251960000Y-80450000D02*
X250806000Y-80450000D01*
X253880000Y-81651000D02*
X251720000Y-81651000D01*
X253464000Y-81851000D02*
X252136000Y-81851000D01*
X251960000Y-80971000D02*
X251040000Y-80971000D01*
X251960000Y-81291000D02*
X251284000Y-81291000D01*
X251960000Y-81411000D02*
X251404000Y-81411000D01*
X251960000Y-81331000D02*
X251322000Y-81331000D01*
X254834000Y-80290000D02*
X253640000Y-80290000D01*
X254754000Y-80571000D02*
X253640000Y-80571000D01*
X254740000Y-80611000D02*
X253640000Y-80611000D01*
X254630000Y-80851000D02*
X253640000Y-80851000D01*
X253170000Y-81931000D02*
X252430000Y-81931000D01*
X254387000Y-81211000D02*
X253640000Y-81211000D01*
X251960000Y-80931000D02*
X251015000Y-80931000D01*
X254000000Y-81571000D02*
X251600000Y-81571000D01*
X254151000Y-81451000D02*
X251449000Y-81451000D01*
X251960000Y-80010000D02*
X250726000Y-80010000D01*
X253337000Y-81891000D02*
X252263000Y-81891000D01*
X251960000Y-80370000D02*
X250784000Y-80370000D01*
X254195000Y-77780199D02*
X253795000Y-77780199D01*
X254707000Y-80691000D02*
X253640000Y-80691000D01*
X251960000Y-81211000D02*
X251213000Y-81211000D01*
X251960000Y-79930000D02*
X250721000Y-79930000D01*
X251960000Y-80571000D02*
X250846000Y-80571000D01*
X253568000Y-81811000D02*
X252032000Y-81811000D01*
X254920000Y-79850000D02*
G75*
G03*
X254920000Y-79850000I-2120000J0D01*
G01*
%TO.C,R20*%
X225160000Y-58600000D02*
X225930000Y-58600000D01*
X232470000Y-59970000D02*
X232470000Y-57230000D01*
X225930000Y-59970000D02*
X232470000Y-59970000D01*
X225930000Y-57230000D02*
X225930000Y-59970000D01*
X232470000Y-57230000D02*
X225930000Y-57230000D01*
X233240000Y-58600000D02*
X232470000Y-58600000D01*
%TO.C,R12*%
X205730000Y-107370000D02*
X212270000Y-107370000D01*
X212270000Y-107370000D02*
X212270000Y-104630000D01*
X212270000Y-104630000D02*
X205730000Y-104630000D01*
X205730000Y-104630000D02*
X205730000Y-107370000D01*
X213040000Y-106000000D02*
X212270000Y-106000000D01*
X204960000Y-106000000D02*
X205730000Y-106000000D01*
%TO.C,R26*%
X249160000Y-63400000D02*
X249930000Y-63400000D01*
X249930000Y-64770000D02*
X256470000Y-64770000D01*
X256470000Y-64770000D02*
X256470000Y-62030000D01*
X249930000Y-62030000D02*
X249930000Y-64770000D01*
X257240000Y-63400000D02*
X256470000Y-63400000D01*
X256470000Y-62030000D02*
X249930000Y-62030000D01*
%TO.C,RV2*%
X253485000Y-51410000D02*
X257815000Y-51410000D01*
X253485000Y-46590000D02*
X257815000Y-46590000D01*
X253485000Y-50190000D02*
X257815000Y-50190000D01*
X253485000Y-47810000D02*
X257815000Y-47810000D01*
X253485000Y-42990000D02*
X257815000Y-42990000D01*
X253485000Y-44210000D02*
X257815000Y-44210000D01*
%TO.C,Q2*%
X195190000Y-40985000D02*
X195190000Y-37385000D01*
X190739999Y-39185000D02*
G75*
G03*
X195178478Y-41023478I2600001J0D01*
G01*
X195178478Y-37346522D02*
G75*
G03*
X190740000Y-39185000I-1838478J-1838478D01*
G01*
%TO.C,R23*%
X256470000Y-65230000D02*
X249930000Y-65230000D01*
X249930000Y-67970000D02*
X256470000Y-67970000D01*
X257240000Y-66600000D02*
X256470000Y-66600000D01*
X249930000Y-65230000D02*
X249930000Y-67970000D01*
X256470000Y-67970000D02*
X256470000Y-65230000D01*
X249160000Y-66600000D02*
X249930000Y-66600000D01*
%TO.C,J3*%
X187900000Y-114242500D02*
X186000000Y-114242500D01*
X187900000Y-111542500D02*
X187900000Y-114242500D01*
X173200000Y-114242500D02*
X173200000Y-105042500D01*
X187900000Y-105042500D02*
X187900000Y-107642500D01*
X182000000Y-114242500D02*
X173200000Y-114242500D01*
X173200000Y-105042500D02*
X187900000Y-105042500D01*
X187050000Y-104842500D02*
X188100000Y-104842500D01*
X188100000Y-105892500D02*
X188100000Y-104842500D01*
%TO.C,R24*%
X241278440Y-81330000D02*
X244018440Y-81330000D01*
X241278440Y-74790000D02*
X241278440Y-81330000D01*
X244018440Y-74790000D02*
X241278440Y-74790000D01*
X244018440Y-81330000D02*
X244018440Y-74790000D01*
X242648440Y-74020000D02*
X242648440Y-74790000D01*
X242648440Y-82100000D02*
X242648440Y-81330000D01*
%TO.C,D3*%
X250120000Y-75390000D02*
X247880000Y-75390000D01*
X250120000Y-75270000D02*
X247880000Y-75270000D01*
X250120000Y-74670000D02*
X247880000Y-74670000D01*
X249000000Y-79560000D02*
X249000000Y-78910000D01*
X250120000Y-75510000D02*
X247880000Y-75510000D01*
X250120000Y-78910000D02*
X250120000Y-74670000D01*
X247880000Y-74670000D02*
X247880000Y-78910000D01*
X249000000Y-74020000D02*
X249000000Y-74670000D01*
X247880000Y-78910000D02*
X250120000Y-78910000D01*
%TO.C,R25*%
X249930000Y-55630000D02*
X249930000Y-58370000D01*
X249930000Y-58370000D02*
X256470000Y-58370000D01*
X256470000Y-55630000D02*
X249930000Y-55630000D01*
X249160000Y-57000000D02*
X249930000Y-57000000D01*
X256470000Y-58370000D02*
X256470000Y-55630000D01*
X257240000Y-57000000D02*
X256470000Y-57000000D01*
%TO.C,C4*%
X228650000Y-48355000D02*
X228650000Y-45615000D01*
X220910000Y-48355000D02*
X220910000Y-45615000D01*
X228650000Y-45615000D02*
X220910000Y-45615000D01*
X228650000Y-48355000D02*
X220910000Y-48355000D01*
%TO.C,R5*%
X182330000Y-70170000D02*
X188870000Y-70170000D01*
X189640000Y-68800000D02*
X188870000Y-68800000D01*
X188870000Y-67430000D02*
X182330000Y-67430000D01*
X181560000Y-68800000D02*
X182330000Y-68800000D01*
X188870000Y-70170000D02*
X188870000Y-67430000D01*
X182330000Y-67430000D02*
X182330000Y-70170000D01*
%TO.C,C12*%
X256870000Y-61570000D02*
X256870000Y-58830000D01*
X256870000Y-61570000D02*
X249130000Y-61570000D01*
X249130000Y-61570000D02*
X249130000Y-58830000D01*
X256870000Y-58830000D02*
X249130000Y-58830000D01*
%TO.C,J2*%
X268870000Y-90425000D02*
X260670000Y-90425000D01*
X235630000Y-102595000D02*
X235630000Y-86605000D01*
X235630000Y-102595000D02*
X260670000Y-102595000D01*
X268870000Y-101665000D02*
X260670000Y-101665000D01*
X268870000Y-101665000D02*
X268870000Y-90425000D01*
X235630000Y-86605000D02*
X260670000Y-86605000D01*
X260670000Y-86605000D02*
X260670000Y-102595000D01*
%TO.C,R11*%
X205400000Y-82360000D02*
X205400000Y-83130000D01*
X206770000Y-83130000D02*
X204030000Y-83130000D01*
X205400000Y-90440000D02*
X205400000Y-89670000D01*
X204030000Y-83130000D02*
X204030000Y-89670000D01*
X206770000Y-89670000D02*
X206770000Y-83130000D01*
X204030000Y-89670000D02*
X206770000Y-89670000D01*
%TO.C,U1*%
X210740000Y-36030000D02*
X210740000Y-53930000D01*
X212390000Y-36030000D02*
X210740000Y-36030000D01*
X216040000Y-53930000D02*
X216040000Y-36030000D01*
X210740000Y-53930000D02*
X216040000Y-53930000D01*
X216040000Y-36030000D02*
X214390000Y-36030000D01*
X212390000Y-36030000D02*
G75*
G03*
X214390000Y-36030000I1000000J0D01*
G01*
%TO.C,R16*%
X228050000Y-45155000D02*
X228050000Y-42415000D01*
X220740000Y-43785000D02*
X221510000Y-43785000D01*
X221510000Y-42415000D02*
X221510000Y-45155000D01*
X228050000Y-42415000D02*
X221510000Y-42415000D01*
X228820000Y-43785000D02*
X228050000Y-43785000D01*
X221510000Y-45155000D02*
X228050000Y-45155000D01*
%TO.C,R4*%
X221510000Y-32355000D02*
X228050000Y-32355000D01*
X228050000Y-32355000D02*
X228050000Y-29615000D01*
X221510000Y-29615000D02*
X221510000Y-32355000D01*
X220740000Y-30985000D02*
X221510000Y-30985000D01*
X228820000Y-30985000D02*
X228050000Y-30985000D01*
X228050000Y-29615000D02*
X221510000Y-29615000D01*
%TO.C,LFO1*%
X243980000Y-57870000D02*
X242330000Y-57870000D01*
X240330000Y-57870000D02*
X238680000Y-57870000D01*
X246470000Y-68210000D02*
X246470000Y-57810000D01*
X238680000Y-68150000D02*
X243980000Y-68150000D01*
X236190000Y-57810000D02*
X236190000Y-68210000D01*
X236190000Y-68210000D02*
X246470000Y-68210000D01*
X246470000Y-57810000D02*
X236190000Y-57810000D01*
X238680000Y-57870000D02*
X238680000Y-68150000D01*
X243980000Y-68150000D02*
X243980000Y-57870000D01*
X240330000Y-57870000D02*
G75*
G03*
X242330000Y-57870000I1000000J0D01*
G01*
%TO.C,R18*%
X191560000Y-84800000D02*
X192330000Y-84800000D01*
X192330000Y-83430000D02*
X192330000Y-86170000D01*
X199640000Y-84800000D02*
X198870000Y-84800000D01*
X198870000Y-83430000D02*
X192330000Y-83430000D01*
X198870000Y-86170000D02*
X198870000Y-83430000D01*
X192330000Y-86170000D02*
X198870000Y-86170000D01*
%TO.C,R3*%
X221510000Y-52015000D02*
X221510000Y-54755000D01*
X228820000Y-53385000D02*
X228050000Y-53385000D01*
X221510000Y-54755000D02*
X228050000Y-54755000D01*
X228050000Y-52015000D02*
X221510000Y-52015000D01*
X220740000Y-53385000D02*
X221510000Y-53385000D01*
X228050000Y-54755000D02*
X228050000Y-52015000D01*
%TO.C,RV3*%
X253485000Y-32790000D02*
X257815000Y-32790000D01*
X253485000Y-36390000D02*
X257815000Y-36390000D01*
X253485000Y-39990000D02*
X257815000Y-39990000D01*
X253485000Y-41210000D02*
X257815000Y-41210000D01*
X253485000Y-34010000D02*
X257815000Y-34010000D01*
X253485000Y-37610000D02*
X257815000Y-37610000D01*
%TO.C,C7*%
X240670000Y-53830000D02*
X232930000Y-53830000D01*
X232930000Y-56570000D02*
X232930000Y-53830000D01*
X240670000Y-56570000D02*
X240670000Y-53830000D01*
X240670000Y-56570000D02*
X232930000Y-56570000D01*
%TO.C,R10*%
X208510000Y-57955000D02*
X215050000Y-57955000D01*
X215050000Y-57955000D02*
X215050000Y-55215000D01*
X207740000Y-56585000D02*
X208510000Y-56585000D01*
X215050000Y-55215000D02*
X208510000Y-55215000D01*
X215820000Y-56585000D02*
X215050000Y-56585000D01*
X208510000Y-55215000D02*
X208510000Y-57955000D01*
%TO.C,R13*%
X213670000Y-68830000D02*
X207130000Y-68830000D01*
X207130000Y-71570000D02*
X213670000Y-71570000D01*
X206360000Y-70200000D02*
X207130000Y-70200000D01*
X207130000Y-68830000D02*
X207130000Y-71570000D01*
X213670000Y-71570000D02*
X213670000Y-68830000D01*
X214440000Y-70200000D02*
X213670000Y-70200000D01*
%TO.C,C6*%
X183930000Y-73370000D02*
X183930000Y-70630000D01*
X191670000Y-73370000D02*
X183930000Y-73370000D01*
X191670000Y-70630000D02*
X183930000Y-70630000D01*
X191670000Y-73370000D02*
X191670000Y-70630000D01*
%TO.C,D1*%
X217514000Y-96415000D02*
X217670000Y-96415000D01*
X219830000Y-96415000D02*
X219986000Y-96415000D01*
X217671392Y-93182665D02*
G75*
G03*
X217514484Y-96415000I1078609J-1672335D01*
G01*
X219985516Y-96415000D02*
G75*
G03*
X219828608Y-93182665I-1235517J1560000D01*
G01*
X219830000Y-95895961D02*
G75*
G03*
X219829837Y-93813870I-1080000J1040961D01*
G01*
X217670163Y-93813870D02*
G75*
G03*
X217670000Y-95895961I1079837J-1041130D01*
G01*
%TO.C,C1*%
X203950000Y-79870000D02*
X203950000Y-72130000D01*
X206690000Y-79870000D02*
X206690000Y-72130000D01*
X203950000Y-72130000D02*
X206690000Y-72130000D01*
X203950000Y-79870000D02*
X206690000Y-79870000D01*
%TO.C,R14*%
X197540000Y-43585000D02*
X198310000Y-43585000D01*
X198310000Y-44955000D02*
X204850000Y-44955000D01*
X204850000Y-44955000D02*
X204850000Y-42215000D01*
X205620000Y-43585000D02*
X204850000Y-43585000D01*
X198310000Y-42215000D02*
X198310000Y-44955000D01*
X204850000Y-42215000D02*
X198310000Y-42215000D01*
%TO.C,R19*%
X220120000Y-89070000D02*
X220120000Y-82530000D01*
X217380000Y-89070000D02*
X220120000Y-89070000D01*
X220120000Y-82530000D02*
X217380000Y-82530000D01*
X218750000Y-81760000D02*
X218750000Y-82530000D01*
X217380000Y-82530000D02*
X217380000Y-89070000D01*
X218750000Y-89840000D02*
X218750000Y-89070000D01*
%TO.C,R9*%
X228050000Y-38755000D02*
X228050000Y-36015000D01*
X221510000Y-36015000D02*
X221510000Y-38755000D01*
X228820000Y-37385000D02*
X228050000Y-37385000D01*
X220740000Y-37385000D02*
X221510000Y-37385000D01*
X221510000Y-38755000D02*
X228050000Y-38755000D01*
X228050000Y-36015000D02*
X221510000Y-36015000D01*
%TO.C,R6*%
X205700000Y-49985000D02*
X204930000Y-49985000D01*
X198390000Y-51355000D02*
X204930000Y-51355000D01*
X204930000Y-51355000D02*
X204930000Y-48615000D01*
X197620000Y-49985000D02*
X198390000Y-49985000D01*
X198390000Y-48615000D02*
X198390000Y-51355000D01*
X204930000Y-48615000D02*
X198390000Y-48615000D01*
%TO.C,Q4*%
X235790000Y-41985000D02*
X235790000Y-38385000D01*
X231339999Y-40185000D02*
G75*
G03*
X235778478Y-42023478I2600001J0D01*
G01*
X235778478Y-38346522D02*
G75*
G03*
X231340000Y-40185000I-1838478J-1838478D01*
G01*
%TD*%
M02*
