%TF.GenerationSoftware,KiCad,Pcbnew,(6.0.1)*%
%TF.CreationDate,2022-05-04T15:38:42-04:00*%
%TF.ProjectId,phase90plusplus,70686173-6539-4307-906c-7573706c7573,rev?*%
%TF.SameCoordinates,Original*%
%TF.FileFunction,Copper,L2,Bot*%
%TF.FilePolarity,Positive*%
%FSLAX46Y46*%
G04 Gerber Fmt 4.6, Leading zero omitted, Abs format (unit mm)*
G04 Created by KiCad (PCBNEW (6.0.1)) date 2022-05-04 15:38:42*
%MOMM*%
%LPD*%
G01*
G04 APERTURE LIST*
G04 Aperture macros list*
%AMRoundRect*
0 Rectangle with rounded corners*
0 $1 Rounding radius*
0 $2 $3 $4 $5 $6 $7 $8 $9 X,Y pos of 4 corners*
0 Add a 4 corners polygon primitive as box body*
4,1,4,$2,$3,$4,$5,$6,$7,$8,$9,$2,$3,0*
0 Add four circle primitives for the rounded corners*
1,1,$1+$1,$2,$3*
1,1,$1+$1,$4,$5*
1,1,$1+$1,$6,$7*
1,1,$1+$1,$8,$9*
0 Add four rect primitives between the rounded corners*
20,1,$1+$1,$2,$3,$4,$5,0*
20,1,$1+$1,$4,$5,$6,$7,0*
20,1,$1+$1,$6,$7,$8,$9,0*
20,1,$1+$1,$8,$9,$2,$3,0*%
G04 Aperture macros list end*
%TA.AperFunction,ComponentPad*%
%ADD10R,1.600000X1.600000*%
%TD*%
%TA.AperFunction,ComponentPad*%
%ADD11O,1.600000X1.600000*%
%TD*%
%TA.AperFunction,ComponentPad*%
%ADD12C,2.000000*%
%TD*%
%TA.AperFunction,ComponentPad*%
%ADD13C,1.600000*%
%TD*%
%TA.AperFunction,ComponentPad*%
%ADD14C,2.540000*%
%TD*%
%TA.AperFunction,ComponentPad*%
%ADD15R,1.500000X1.050000*%
%TD*%
%TA.AperFunction,ComponentPad*%
%ADD16O,1.500000X1.050000*%
%TD*%
%TA.AperFunction,ComponentPad*%
%ADD17RoundRect,0.250000X-0.550000X0.550000X-0.550000X-0.550000X0.550000X-0.550000X0.550000X0.550000X0*%
%TD*%
%TA.AperFunction,ComponentPad*%
%ADD18C,3.000000*%
%TD*%
%TA.AperFunction,ComponentPad*%
%ADD19R,1.200000X1.200000*%
%TD*%
%TA.AperFunction,ComponentPad*%
%ADD20C,1.200000*%
%TD*%
%TA.AperFunction,ComponentPad*%
%ADD21RoundRect,0.250000X0.550000X-0.550000X0.550000X0.550000X-0.550000X0.550000X-0.550000X-0.550000X0*%
%TD*%
%TA.AperFunction,ComponentPad*%
%ADD22R,3.500000X3.500000*%
%TD*%
%TA.AperFunction,ComponentPad*%
%ADD23RoundRect,0.750000X-0.750000X-1.000000X0.750000X-1.000000X0.750000X1.000000X-0.750000X1.000000X0*%
%TD*%
%TA.AperFunction,ComponentPad*%
%ADD24RoundRect,0.875000X-0.875000X-0.875000X0.875000X-0.875000X0.875000X0.875000X-0.875000X0.875000X0*%
%TD*%
%TA.AperFunction,ComponentPad*%
%ADD25R,1.800000X1.800000*%
%TD*%
%TA.AperFunction,ComponentPad*%
%ADD26C,1.800000*%
%TD*%
%TA.AperFunction,ComponentPad*%
%ADD27RoundRect,0.250000X0.750000X-0.600000X0.750000X0.600000X-0.750000X0.600000X-0.750000X-0.600000X0*%
%TD*%
%TA.AperFunction,ComponentPad*%
%ADD28O,2.000000X1.700000*%
%TD*%
%TA.AperFunction,ViaPad*%
%ADD29C,3.000000*%
%TD*%
%TA.AperFunction,ViaPad*%
%ADD30C,0.800000*%
%TD*%
%TA.AperFunction,Conductor*%
%ADD31C,0.800000*%
%TD*%
%TA.AperFunction,Conductor*%
%ADD32C,0.400000*%
%TD*%
G04 APERTURE END LIST*
D10*
%TO.P,U2,1*%
%TO.N,Net-(C6-Pad1)*%
X195200000Y-62600000D03*
D11*
%TO.P,U2,2,-*%
%TO.N,Net-(R10-Pad2)*%
X195200000Y-65140000D03*
%TO.P,U2,3,+*%
%TO.N,+5V*%
X195200000Y-67680000D03*
%TO.P,U2,4,V-*%
%TO.N,GNDREF*%
X195200000Y-70220000D03*
%TO.P,U2,5,+*%
%TO.N,Net-(C1-Pad2)*%
X202820000Y-70220000D03*
%TO.P,U2,6,-*%
%TO.N,/U1_LOOPBACK*%
X202820000Y-67680000D03*
%TO.P,U2,7*%
X202820000Y-65140000D03*
%TO.P,U2,8,V+*%
%TO.N,+9V*%
X202820000Y-62600000D03*
%TD*%
D12*
%TO.P,C11,1*%
%TO.N,GNDREF*%
X250500000Y-53800000D03*
%TO.P,C11,2*%
%TO.N,/FRQ*%
X255500000Y-53800000D03*
%TD*%
D10*
%TO.P,D2,1,K*%
%TO.N,+5V*%
X246000000Y-72980000D03*
D11*
%TO.P,D2,2,A*%
%TO.N,GNDREF*%
X246000000Y-80600000D03*
%TD*%
D12*
%TO.P,C10,1*%
%TO.N,GNDREF*%
X239400000Y-78430000D03*
%TO.P,C10,2*%
%TO.N,+5V*%
X239400000Y-73430000D03*
%TD*%
D13*
%TO.P,R15,1*%
%TO.N,+5V*%
X196500000Y-30800000D03*
D11*
%TO.P,R15,2*%
%TO.N,Net-(C3-Pad2)*%
X206660000Y-30800000D03*
%TD*%
D14*
%TO.P,S1,P$1,O*%
%TO.N,Net-(R11-Pad1)*%
X213451560Y-113801940D03*
%TO.P,S1,P$2,P*%
%TO.N,Net-(J1-PadT1)*%
X213451560Y-118600000D03*
%TO.P,S1,P$3,S*%
%TO.N,/OUTPUT*%
X213451560Y-123398060D03*
%TO.P,S1,P$4,O*%
%TO.N,Net-(R12-Pad1)*%
X218750000Y-113801940D03*
%TO.P,S1,P$5,P*%
%TO.N,Net-(J2-PadT1)*%
X218750000Y-118600000D03*
%TO.P,S1,P$6,S*%
%TO.N,/OUTPUT*%
X218750000Y-123398060D03*
%TO.P,S1,P$7,O*%
%TO.N,+9V*%
X224048440Y-113801940D03*
%TO.P,S1,P$8,P*%
%TO.N,Net-(J3-Pad2)*%
X224048440Y-118600000D03*
%TO.P,S1,P$9,S*%
%TO.N,unconnected-(S1-PadP$9)*%
X224048440Y-123398060D03*
%TD*%
D12*
%TO.P,C3,1*%
%TO.N,Net-(C3-Pad1)*%
X201280000Y-34000000D03*
%TO.P,C3,2*%
%TO.N,Net-(C3-Pad2)*%
X206280000Y-34000000D03*
%TD*%
D13*
%TO.P,R2,1*%
%TO.N,Net-(R2-Pad1)*%
X196520000Y-37200000D03*
D11*
%TO.P,R2,2*%
%TO.N,Net-(C4-Pad1)*%
X206680000Y-37200000D03*
%TD*%
D13*
%TO.P,R7,1*%
%TO.N,Net-(C3-Pad1)*%
X196500000Y-40385000D03*
D11*
%TO.P,R7,2*%
%TO.N,Net-(R2-Pad1)*%
X206660000Y-40385000D03*
%TD*%
D12*
%TO.P,C2,1*%
%TO.N,/U1_LOOPBACK*%
X199080000Y-46785000D03*
%TO.P,C2,2*%
%TO.N,Net-(C2-Pad2)*%
X204080000Y-46785000D03*
%TD*%
%TO.P,C5,1*%
%TO.N,Net-(C5-Pad1)*%
X227480000Y-40585000D03*
%TO.P,C5,2*%
%TO.N,Net-(C5-Pad2)*%
X222480000Y-40585000D03*
%TD*%
D15*
%TO.P,Q3,1,G*%
%TO.N,/LFO_OUT*%
X233900000Y-47055000D03*
D16*
%TO.P,Q3,2,S*%
%TO.N,Net-(C4-Pad2)*%
X233900000Y-45785000D03*
%TO.P,Q3,3,D*%
%TO.N,+5V*%
X233900000Y-44515000D03*
%TD*%
D17*
%TO.P,RV1,1,1*%
%TO.N,/U1_LOOPBACK*%
X186775000Y-57800000D03*
D13*
%TO.P,RV1,2,2*%
X186775000Y-61400000D03*
%TO.P,RV1,3,3*%
%TO.N,Net-(R10-Pad2)*%
X186775000Y-65000000D03*
%TD*%
%TO.P,R21,1*%
%TO.N,/LFO*%
X234480000Y-65000000D03*
D11*
%TO.P,R21,2*%
%TO.N,Net-(C8-Pad2)*%
X224320000Y-65000000D03*
%TD*%
D13*
%TO.P,R8,1*%
%TO.N,Net-(C4-Pad1)*%
X229860000Y-50185000D03*
D11*
%TO.P,R8,2*%
%TO.N,Net-(R3-Pad1)*%
X219700000Y-50185000D03*
%TD*%
D13*
%TO.P,R22,1*%
%TO.N,Net-(LFO1-Pad2)*%
X234400000Y-61800000D03*
D11*
%TO.P,R22,2*%
%TO.N,GNDREF*%
X224240000Y-61800000D03*
%TD*%
D18*
%TO.P,J1,R1*%
%TO.N,/RING*%
X188050000Y-100635000D03*
%TO.P,J1,RN*%
%TO.N,unconnected-(J1-PadRN)*%
X188050000Y-89205000D03*
%TO.P,J1,S1*%
%TO.N,GNDREF*%
X181700000Y-100635000D03*
%TO.P,J1,SN*%
%TO.N,unconnected-(J1-PadSN)*%
X181700000Y-89205000D03*
%TO.P,J1,T1*%
%TO.N,Net-(J1-PadT1)*%
X194400000Y-100635000D03*
%TO.P,J1,TN*%
%TO.N,unconnected-(J1-PadTN)*%
X194400000Y-89205000D03*
%TD*%
D13*
%TO.P,R17,1*%
%TO.N,+5V*%
X229860000Y-34185000D03*
D11*
%TO.P,R17,2*%
%TO.N,Net-(C5-Pad2)*%
X219700000Y-34185000D03*
%TD*%
D15*
%TO.P,Q1,1,G*%
%TO.N,/LFO_OUT*%
X193380000Y-49985000D03*
D16*
%TO.P,Q1,2,S*%
%TO.N,Net-(C2-Pad2)*%
X193380000Y-48715000D03*
%TO.P,Q1,3,D*%
%TO.N,+5V*%
X193380000Y-47445000D03*
%TD*%
D12*
%TO.P,C8,1*%
%TO.N,GNDREF*%
X229700000Y-68200000D03*
%TO.P,C8,2*%
%TO.N,Net-(C8-Pad2)*%
X224700000Y-68200000D03*
%TD*%
D13*
%TO.P,R1,1*%
%TO.N,Net-(R1-Pad1)*%
X196580000Y-53185000D03*
D11*
%TO.P,R1,2*%
%TO.N,Net-(C3-Pad1)*%
X206740000Y-53185000D03*
%TD*%
D19*
%TO.P,C9,1*%
%TO.N,+5V*%
X252800000Y-79100000D03*
D20*
%TO.P,C9,2*%
%TO.N,GNDREF*%
X252800000Y-80600000D03*
%TD*%
D13*
%TO.P,R20,1*%
%TO.N,Net-(C8-Pad2)*%
X224120000Y-58600000D03*
D11*
%TO.P,R20,2*%
%TO.N,/LFO_OUT*%
X234280000Y-58600000D03*
%TD*%
D13*
%TO.P,R12,1*%
%TO.N,Net-(R12-Pad1)*%
X214080000Y-106000000D03*
D11*
%TO.P,R12,2*%
%TO.N,Net-(C6-Pad2)*%
X203920000Y-106000000D03*
%TD*%
D13*
%TO.P,R26,1*%
%TO.N,Net-(R26-Pad1)*%
X258280000Y-63400000D03*
D11*
%TO.P,R26,2*%
%TO.N,/WVF*%
X248120000Y-63400000D03*
%TD*%
D21*
%TO.P,RV2,1,1*%
%TO.N,GNDREF*%
X252425000Y-50800000D03*
D13*
%TO.P,RV2,2,2*%
%TO.N,Net-(R25-Pad1)*%
X252425000Y-47200000D03*
%TO.P,RV2,3,3*%
%TO.N,+5V*%
X252425000Y-43600000D03*
%TD*%
D15*
%TO.P,Q2,1,G*%
%TO.N,/LFO_OUT*%
X193340000Y-40455000D03*
D16*
%TO.P,Q2,2,S*%
%TO.N,Net-(C3-Pad2)*%
X193340000Y-39185000D03*
%TO.P,Q2,3,D*%
%TO.N,+5V*%
X193340000Y-37915000D03*
%TD*%
D13*
%TO.P,R23,1*%
%TO.N,+5V*%
X258280000Y-66600000D03*
D11*
%TO.P,R23,2*%
%TO.N,Net-(LFO1-Pad5)*%
X248120000Y-66600000D03*
%TD*%
D22*
%TO.P,J3,1*%
%TO.N,/RING*%
X187000000Y-109642500D03*
D23*
%TO.P,J3,2*%
%TO.N,Net-(J3-Pad2)*%
X181000000Y-109642500D03*
D24*
%TO.P,J3,3*%
%TO.N,Net-(BT1-Pad1)*%
X184000000Y-114342500D03*
%TD*%
D13*
%TO.P,R24,1*%
%TO.N,+9V*%
X242648440Y-83140000D03*
D11*
%TO.P,R24,2*%
%TO.N,+5V*%
X242648440Y-72980000D03*
%TD*%
D10*
%TO.P,D3,1,K*%
%TO.N,+5V*%
X249000000Y-72980000D03*
D11*
%TO.P,D3,2,A*%
%TO.N,GNDREF*%
X249000000Y-80600000D03*
%TD*%
D13*
%TO.P,R25,1*%
%TO.N,Net-(R25-Pad1)*%
X248120000Y-57000000D03*
D11*
%TO.P,R25,2*%
%TO.N,/FRQ*%
X258280000Y-57000000D03*
%TD*%
D12*
%TO.P,C4,1*%
%TO.N,Net-(C4-Pad1)*%
X227280000Y-46985000D03*
%TO.P,C4,2*%
%TO.N,Net-(C4-Pad2)*%
X222280000Y-46985000D03*
%TD*%
D13*
%TO.P,R5,1*%
%TO.N,Net-(R10-Pad2)*%
X180520000Y-68800000D03*
D11*
%TO.P,R5,2*%
%TO.N,Net-(C6-Pad1)*%
X190680000Y-68800000D03*
%TD*%
D12*
%TO.P,C12,1*%
%TO.N,GNDREF*%
X255500000Y-60200000D03*
%TO.P,C12,2*%
%TO.N,/WVF*%
X250500000Y-60200000D03*
%TD*%
D18*
%TO.P,J2,R1*%
%TO.N,GNDREF*%
X249450000Y-88815000D03*
%TO.P,J2,RN*%
%TO.N,unconnected-(J2-PadRN)*%
X249450000Y-100245000D03*
%TO.P,J2,S1*%
%TO.N,GNDREF*%
X255800000Y-88815000D03*
%TO.P,J2,SN*%
%TO.N,unconnected-(J2-PadSN)*%
X255800000Y-100245000D03*
%TO.P,J2,T1*%
%TO.N,Net-(J2-PadT1)*%
X243100000Y-88815000D03*
%TO.P,J2,TN*%
%TO.N,unconnected-(J2-PadTN)*%
X243100000Y-100245000D03*
%TD*%
D13*
%TO.P,R11,1*%
%TO.N,Net-(R11-Pad1)*%
X205400000Y-91480000D03*
D11*
%TO.P,R11,2*%
%TO.N,Net-(C1-Pad1)*%
X205400000Y-81320000D03*
%TD*%
D10*
%TO.P,U1,1*%
%TO.N,Net-(C4-Pad1)*%
X209580000Y-37360000D03*
D11*
%TO.P,U1,2,-*%
%TO.N,Net-(R2-Pad1)*%
X209580000Y-39900000D03*
%TO.P,U1,3,+*%
%TO.N,Net-(C3-Pad2)*%
X209580000Y-42440000D03*
%TO.P,U1,4,V+*%
%TO.N,+9V*%
X209580000Y-44980000D03*
%TO.P,U1,5,+*%
%TO.N,Net-(C2-Pad2)*%
X209580000Y-47520000D03*
%TO.P,U1,6,-*%
%TO.N,Net-(R1-Pad1)*%
X209580000Y-50060000D03*
%TO.P,U1,7*%
%TO.N,Net-(C3-Pad1)*%
X209580000Y-52600000D03*
%TO.P,U1,8*%
%TO.N,Net-(C5-Pad1)*%
X217200000Y-52600000D03*
%TO.P,U1,9,-*%
%TO.N,Net-(R3-Pad1)*%
X217200000Y-50060000D03*
%TO.P,U1,10,+*%
%TO.N,Net-(C4-Pad2)*%
X217200000Y-47520000D03*
%TO.P,U1,11,V-*%
%TO.N,GNDREF*%
X217200000Y-44980000D03*
%TO.P,U1,12,+*%
%TO.N,Net-(C5-Pad2)*%
X217200000Y-42440000D03*
%TO.P,U1,13,-*%
%TO.N,Net-(R4-Pad1)*%
X217200000Y-39900000D03*
%TO.P,U1,14*%
%TO.N,Net-(R10-Pad1)*%
X217200000Y-37360000D03*
%TD*%
D13*
%TO.P,R16,1*%
%TO.N,+5V*%
X229860000Y-43785000D03*
D11*
%TO.P,R16,2*%
%TO.N,Net-(C4-Pad2)*%
X219700000Y-43785000D03*
%TD*%
D13*
%TO.P,R4,1*%
%TO.N,Net-(R4-Pad1)*%
X229860000Y-30985000D03*
D11*
%TO.P,R4,2*%
%TO.N,Net-(R10-Pad1)*%
X219700000Y-30985000D03*
%TD*%
D10*
%TO.P,LFO1,1,+5V*%
%TO.N,+5V*%
X237520000Y-59200000D03*
D11*
%TO.P,LFO1,2,OFFST*%
%TO.N,Net-(LFO1-Pad2)*%
X237520000Y-61740000D03*
%TO.P,LFO1,3,OUT*%
%TO.N,/LFO*%
X237520000Y-64280000D03*
%TO.P,LFO1,4,TAP*%
%TO.N,unconnected-(LFO1-Pad4)*%
X237520000Y-66820000D03*
%TO.P,LFO1,5,DPTH*%
%TO.N,Net-(LFO1-Pad5)*%
X245140000Y-66820000D03*
%TO.P,LFO1,6,WVF*%
%TO.N,/WVF*%
X245140000Y-64280000D03*
%TO.P,LFO1,7,FRQ*%
%TO.N,/FRQ*%
X245140000Y-61740000D03*
%TO.P,LFO1,8,GND*%
%TO.N,GNDREF*%
X245140000Y-59200000D03*
%TD*%
D13*
%TO.P,R18,1*%
%TO.N,GNDREF*%
X200680000Y-84800000D03*
D11*
%TO.P,R18,2*%
%TO.N,Net-(C6-Pad2)*%
X190520000Y-84800000D03*
%TD*%
D13*
%TO.P,R3,1*%
%TO.N,Net-(R3-Pad1)*%
X229860000Y-53385000D03*
D11*
%TO.P,R3,2*%
%TO.N,Net-(C5-Pad1)*%
X219700000Y-53385000D03*
%TD*%
D21*
%TO.P,RV3,1,1*%
%TO.N,GNDREF*%
X252425000Y-40600000D03*
D13*
%TO.P,RV3,2,2*%
%TO.N,Net-(R26-Pad1)*%
X252425000Y-37000000D03*
%TO.P,RV3,3,3*%
%TO.N,+5V*%
X252425000Y-33400000D03*
%TD*%
D12*
%TO.P,C7,1*%
%TO.N,GNDREF*%
X239300000Y-55200000D03*
%TO.P,C7,2*%
%TO.N,/LFO_OUT*%
X234300000Y-55200000D03*
%TD*%
D13*
%TO.P,R10,1*%
%TO.N,Net-(R10-Pad1)*%
X216860000Y-56585000D03*
D11*
%TO.P,R10,2*%
%TO.N,Net-(R10-Pad2)*%
X206700000Y-56585000D03*
%TD*%
D13*
%TO.P,R13,1*%
%TO.N,+5V*%
X215480000Y-70200000D03*
D11*
%TO.P,R13,2*%
%TO.N,Net-(C1-Pad2)*%
X205320000Y-70200000D03*
%TD*%
D12*
%TO.P,C6,1*%
%TO.N,Net-(C6-Pad1)*%
X190300000Y-72000000D03*
%TO.P,C6,2*%
%TO.N,Net-(C6-Pad2)*%
X185300000Y-72000000D03*
%TD*%
D25*
%TO.P,D1,1,K*%
%TO.N,GNDREF*%
X218750000Y-96125000D03*
D26*
%TO.P,D1,2,A*%
%TO.N,Net-(D1-Pad2)*%
X218750000Y-93585000D03*
%TD*%
D12*
%TO.P,C1,1*%
%TO.N,Net-(C1-Pad1)*%
X205320000Y-78500000D03*
%TO.P,C1,2*%
%TO.N,Net-(C1-Pad2)*%
X205320000Y-73500000D03*
%TD*%
D13*
%TO.P,R14,1*%
%TO.N,+5V*%
X196500000Y-43585000D03*
D11*
%TO.P,R14,2*%
%TO.N,Net-(C2-Pad2)*%
X206660000Y-43585000D03*
%TD*%
D13*
%TO.P,R19,1*%
%TO.N,+9V*%
X218750000Y-80720000D03*
D11*
%TO.P,R19,2*%
%TO.N,Net-(D1-Pad2)*%
X218750000Y-90880000D03*
%TD*%
D13*
%TO.P,R9,1*%
%TO.N,Net-(C5-Pad1)*%
X229860000Y-37385000D03*
D11*
%TO.P,R9,2*%
%TO.N,Net-(R4-Pad1)*%
X219700000Y-37385000D03*
%TD*%
D13*
%TO.P,R6,1*%
%TO.N,/U1_LOOPBACK*%
X196580000Y-49985000D03*
D11*
%TO.P,R6,2*%
%TO.N,Net-(R1-Pad1)*%
X206740000Y-49985000D03*
%TD*%
D15*
%TO.P,Q4,1,G*%
%TO.N,/LFO_OUT*%
X233940000Y-41455000D03*
D16*
%TO.P,Q4,2,S*%
%TO.N,Net-(C5-Pad2)*%
X233940000Y-40185000D03*
%TO.P,Q4,3,D*%
%TO.N,+5V*%
X233940000Y-38915000D03*
%TD*%
D27*
%TO.P,BT1,1,+*%
%TO.N,Net-(BT1-Pad1)*%
X186532500Y-122600000D03*
D28*
%TO.P,BT1,2,-*%
%TO.N,/RING*%
X186532500Y-120100000D03*
%TD*%
D29*
%TO.N,GNDREF*%
X218800000Y-75800000D03*
D30*
%TO.N,+5V*%
X206480489Y-61200489D03*
%TD*%
D31*
%TO.N,+9V*%
X210400000Y-62600000D02*
X212800000Y-60200000D01*
X212800000Y-48200000D02*
X209580000Y-44980000D01*
X202820000Y-62600000D02*
X210400000Y-62600000D01*
X212800000Y-60200000D02*
X212800000Y-48200000D01*
%TO.N,GNDREF*%
X195200000Y-70220000D02*
X196599511Y-71619511D01*
X239300000Y-55200000D02*
X241140000Y-55200000D01*
X223000000Y-91875000D02*
X223000000Y-80000000D01*
X228000000Y-68200000D02*
X229700000Y-68200000D01*
X218800000Y-67240000D02*
X218800000Y-75800000D01*
X253900489Y-58600489D02*
X245739511Y-58600489D01*
X252425000Y-40600000D02*
X245140000Y-47885000D01*
X215460489Y-46719511D02*
X215460489Y-68201280D01*
X181700000Y-100635000D02*
X181700000Y-98935842D01*
X209600000Y-85000000D02*
X218800000Y-75800000D01*
X218800000Y-71540791D02*
X218800000Y-75800000D01*
X255500000Y-60200000D02*
X253900489Y-58600489D01*
X200680000Y-85000000D02*
X209600000Y-85000000D01*
X245140000Y-47885000D02*
X245140000Y-55260000D01*
X218750000Y-96125000D02*
X223000000Y-91875000D01*
X196599511Y-71619511D02*
X214619511Y-71619511D01*
X245739511Y-58600489D02*
X245140000Y-59200000D01*
X215460489Y-68201280D02*
X218800000Y-71540791D01*
X204835842Y-75800000D02*
X218800000Y-75800000D01*
X224240000Y-61800000D02*
X218800000Y-67240000D01*
X249600000Y-50800000D02*
X245140000Y-55260000D01*
X214619511Y-71619511D02*
X218800000Y-75800000D01*
X245140000Y-55260000D02*
X245140000Y-57260000D01*
X230519209Y-75800000D02*
X239300000Y-67019209D01*
X217200000Y-44980000D02*
X215460489Y-46719511D01*
X218800000Y-75800000D02*
X230519209Y-75800000D01*
X248600000Y-53800000D02*
X245140000Y-57260000D01*
X250500000Y-53800000D02*
X248600000Y-53800000D01*
X252425000Y-50800000D02*
X249600000Y-50800000D01*
X181700000Y-98935842D02*
X204835842Y-75800000D01*
X245140000Y-57260000D02*
X245140000Y-59200000D01*
X223000000Y-80000000D02*
X218800000Y-75800000D01*
X220400000Y-75800000D02*
X228000000Y-68200000D01*
X218800000Y-75800000D02*
X220400000Y-75800000D01*
X241140000Y-55200000D02*
X245140000Y-59200000D01*
X239300000Y-67019209D02*
X239300000Y-55200000D01*
%TO.N,+5V*%
X233940000Y-38915000D02*
X234485311Y-38915000D01*
X237520000Y-41949689D02*
X237520000Y-46585000D01*
X190600000Y-53600000D02*
X193400000Y-56400000D01*
X234485311Y-38915000D02*
X237520000Y-41949689D01*
X235450000Y-44515000D02*
X233900000Y-44515000D01*
X193400000Y-56400000D02*
X201600000Y-56400000D01*
X206400489Y-61200489D02*
X206480489Y-61200489D01*
X237520000Y-46585000D02*
X235450000Y-44515000D01*
X191830000Y-47445000D02*
X190600000Y-48675000D01*
X201600000Y-56400000D02*
X206400489Y-61200489D01*
X237520000Y-59200000D02*
X237520000Y-46585000D01*
X190600000Y-48675000D02*
X190600000Y-53600000D01*
X193380000Y-47445000D02*
X191830000Y-47445000D01*
D32*
%TO.N,/U1_LOOPBACK*%
X202820000Y-65140000D02*
X195480000Y-57800000D01*
X195480000Y-57800000D02*
X186775000Y-57800000D01*
X202820000Y-67680000D02*
X202820000Y-65140000D01*
%TO.N,Net-(C3-Pad1)*%
X196500000Y-40385000D02*
X196500000Y-41516370D01*
X196500000Y-41516370D02*
X206740000Y-51756370D01*
X206740000Y-51756370D02*
X206740000Y-53185000D01*
%TO.N,Net-(C3-Pad2)*%
X209580000Y-42440000D02*
X208380489Y-41240489D01*
X208380489Y-36100489D02*
X206280000Y-34000000D01*
X208380489Y-41240489D02*
X208380489Y-36100489D01*
X201095000Y-39185000D02*
X206280000Y-34000000D01*
X193340000Y-39185000D02*
X201095000Y-39185000D01*
%TO.N,Net-(C4-Pad1)*%
X221156280Y-41240489D02*
X226900791Y-46985000D01*
X226900791Y-46985000D02*
X227280000Y-46985000D01*
X209580000Y-37360000D02*
X213460489Y-41240489D01*
X213460489Y-41240489D02*
X221156280Y-41240489D01*
%TO.N,Net-(C5-Pad1)*%
X222859209Y-53385000D02*
X228679511Y-47564698D01*
X228679511Y-44079511D02*
X227480000Y-42880000D01*
X228679511Y-47564698D02*
X228679511Y-44079511D01*
X219700000Y-53385000D02*
X222859209Y-53385000D01*
X229860000Y-38205000D02*
X229860000Y-37385000D01*
X227480000Y-42880000D02*
X227480000Y-40585000D01*
X227480000Y-40585000D02*
X229860000Y-38205000D01*
%TO.N,Net-(C5-Pad2)*%
X222480000Y-36965000D02*
X222480000Y-40585000D01*
X219700000Y-34185000D02*
X222480000Y-36965000D01*
D31*
%TO.N,Net-(J3-Pad2)*%
X222178929Y-120469511D02*
X224048440Y-118600000D01*
X201592011Y-111992011D02*
X210069511Y-120469511D01*
X181000000Y-109642500D02*
X183349511Y-111992011D01*
X210069511Y-120469511D02*
X222178929Y-120469511D01*
X183349511Y-111992011D02*
X201592011Y-111992011D01*
D32*
%TO.N,Net-(R10-Pad2)*%
X186775000Y-65000000D02*
X195060000Y-65000000D01*
X195060000Y-65000000D02*
X195200000Y-65140000D01*
%TD*%
M02*
